<svg xmlns="http://www.w3.org/2000/svg" xmlns:xlink="http://www.w3.org/1999/xlink" width="1152" height="493.734" viewBox="0 0 1152 493.734">
  <defs>
    <linearGradient id="linear-gradient" y1="0.459" x2="1" y2="0.471" gradientUnits="objectBoundingBox">
      <stop offset="0" stop-color="#72ccfe"/>
      <stop offset="0.424" stop-color="#76ccf9"/>
      <stop offset="0.573" stop-color="#f7cc70"/>
      <stop offset="0.868" stop-color="#ffcc68"/>
      <stop offset="1" stop-color="#ffcc68"/>
    </linearGradient>
    <clipPath id="clip-path">
      <path id="Tracé_58" data-name="Tracé 58" d="M97.56,0A.363.363,0,0,0,97.4.044L.187,53.7A.363.363,0,0,0,0,54.02V91.275a.364.364,0,0,0,.358.364H.37a.374.374,0,0,0,.17-.045L96.326,38.668a.36.36,0,0,1,.352,0l94.78,52.92a.364.364,0,0,0,.541-.318v-37.1a.364.364,0,0,0-.184-.315L97.755.048A.366.366,0,0,0,97.585,0Z" fill="url(#linear-gradient)"/>
    </clipPath>
  </defs>
  <g id="Groupe_124" data-name="Groupe 124" transform="translate(-976 -222)">
    <g id="Groupe_37" data-name="Groupe 37" transform="translate(976 525.078)">
      <g id="Groupe_30" data-name="Groupe 30" transform="translate(0)">
        <g id="Groupe_29" data-name="Groupe 29" transform="translate(0 0)" clip-path="url(#clip-path)">
          <rect id="Rectangle_21" data-name="Rectangle 21" width="192" height="91.725" transform="translate(0 0)" fill="url(#linear-gradient)"/>
        </g>
      </g>
      <path id="Tracé_59" data-name="Tracé 59" d="M14.131,151.288c-.065-2.023,19.733-14.268,19.733-14.268L33.383,120S20.526,115,13.78,129.736c0,0,.383,22.45.351,21.544Z" transform="translate(9.65 -31.479)" fill="#6cf"/>
      <path id="Tracé_60" data-name="Tracé 60" d="M59.281,128.618c-.065-2.023,19.733-14.268,19.733-14.268l-.481-17.017s-12.856-5.009-19.6,9.732c0,0,.383,22.45.351,21.544Z" transform="translate(1.332 -27.302)" fill="#6cf"/>
      <path id="Tracé_61" data-name="Tracé 61" d="M187.975,154.312c.057-1.64-16.495-11.453-16.495-11.453L172,127.489s10.385-4.046,15.834,7.864c0,0,.114,19.692.139,18.958" transform="translate(-19.405 -32.887)" fill="#fc6"/>
      <path id="Tracé_62" data-name="Tracé 62" d="M152.155,133.012c.057-1.64-16.495-11.453-16.495-11.453l.522-15.369s10.385-4.046,15.834,7.864c0,0,.114,19.692.139,18.958" transform="translate(-12.805 -28.963)" fill="#fc6"/>
      <g id="Groupe_32" data-name="Groupe 32" transform="translate(0 99.017)">
        <g id="Groupe_29-2" data-name="Groupe 29" transform="translate(0 0)" clip-path="url(#clip-path)">
          <rect id="Rectangle_21-2" data-name="Rectangle 21" width="192" height="91.725" transform="translate(0 0)" fill="url(#linear-gradient)"/>
        </g>
      </g>
      <g id="Groupe_34" data-name="Groupe 34" transform="translate(192)">
        <g id="Groupe_29-3" data-name="Groupe 29" transform="translate(0 0)" clip-path="url(#clip-path)">
          <rect id="Rectangle_21-3" data-name="Rectangle 21" width="192" height="91.725" transform="translate(0 0)" fill="url(#linear-gradient)"/>
        </g>
      </g>
      <path id="Tracé_63" data-name="Tracé 63" d="M14.131,151.288c-.065-2.023,19.733-14.268,19.733-14.268L33.383,120S20.526,115,13.78,129.736c0,0,.383,22.45.351,21.544Z" transform="translate(201.65 -31.479)" fill="#6cf"/>
      <path id="Tracé_64" data-name="Tracé 64" d="M59.281,128.618c-.065-2.023,19.733-14.268,19.733-14.268l-.481-17.017s-12.856-5.009-19.6,9.732c0,0,.383,22.45.351,21.544Z" transform="translate(193.332 -27.302)" fill="#6cf"/>
      <path id="Tracé_65" data-name="Tracé 65" d="M187.975,154.312c.057-1.64-16.495-11.453-16.495-11.453L172,127.489s10.385-4.046,15.834,7.864c0,0,.114,19.692.139,18.958" transform="translate(172.595 -32.887)" fill="#fc6"/>
      <path id="Tracé_66" data-name="Tracé 66" d="M152.155,133.012c.057-1.64-16.495-11.453-16.495-11.453l.522-15.369s10.385-4.046,15.834,7.864c0,0,.114,19.692.139,18.958" transform="translate(179.195 -28.963)" fill="#fc6"/>
      <g id="Groupe_35" data-name="Groupe 35" transform="translate(192 99.017)">
        <g id="Groupe_29-4" data-name="Groupe 29" transform="translate(0 0)" clip-path="url(#clip-path)">
          <rect id="Rectangle_21-4" data-name="Rectangle 21" width="192" height="91.725" transform="translate(0 0)" fill="url(#linear-gradient)"/>
        </g>
      </g>
    </g>
    <g id="Groupe_38" data-name="Groupe 38" transform="translate(1360 525.078)">
      <g id="Groupe_30-2" data-name="Groupe 30" transform="translate(0)">
        <g id="Groupe_29-5" data-name="Groupe 29" transform="translate(0 0)" clip-path="url(#clip-path)">
          <rect id="Rectangle_21-5" data-name="Rectangle 21" width="192" height="91.725" transform="translate(0 0)" fill="url(#linear-gradient)"/>
        </g>
      </g>
      <path id="Tracé_59-2" data-name="Tracé 59" d="M14.131,151.288c-.065-2.023,19.733-14.268,19.733-14.268L33.383,120S20.526,115,13.78,129.736c0,0,.383,22.45.351,21.544Z" transform="translate(9.65 -31.479)" fill="#6cf"/>
      <path id="Tracé_60-2" data-name="Tracé 60" d="M59.281,128.618c-.065-2.023,19.733-14.268,19.733-14.268l-.481-17.017s-12.856-5.009-19.6,9.732c0,0,.383,22.45.351,21.544Z" transform="translate(1.332 -27.302)" fill="#6cf"/>
      <path id="Tracé_61-2" data-name="Tracé 61" d="M187.975,154.312c.057-1.64-16.495-11.453-16.495-11.453L172,127.489s10.385-4.046,15.834,7.864c0,0,.114,19.692.139,18.958" transform="translate(-19.405 -32.887)" fill="#fc6"/>
      <path id="Tracé_62-2" data-name="Tracé 62" d="M152.155,133.012c.057-1.64-16.495-11.453-16.495-11.453l.522-15.369s10.385-4.046,15.834,7.864c0,0,.114,19.692.139,18.958" transform="translate(-12.805 -28.963)" fill="#fc6"/>
      <g id="Groupe_32-2" data-name="Groupe 32" transform="translate(0 99.017)">
        <g id="Groupe_29-6" data-name="Groupe 29" transform="translate(0 0)" clip-path="url(#clip-path)">
          <rect id="Rectangle_21-6" data-name="Rectangle 21" width="192" height="91.725" transform="translate(0 0)" fill="url(#linear-gradient)"/>
        </g>
      </g>
      <g id="Groupe_34-2" data-name="Groupe 34" transform="translate(192)">
        <g id="Groupe_29-7" data-name="Groupe 29" transform="translate(0 0)" clip-path="url(#clip-path)">
          <rect id="Rectangle_21-7" data-name="Rectangle 21" width="192" height="91.725" transform="translate(0 0)" fill="url(#linear-gradient)"/>
        </g>
      </g>
      <path id="Tracé_63-2" data-name="Tracé 63" d="M14.131,151.288c-.065-2.023,19.733-14.268,19.733-14.268L33.383,120S20.526,115,13.78,129.736c0,0,.383,22.45.351,21.544Z" transform="translate(201.65 -31.479)" fill="#6cf"/>
      <path id="Tracé_64-2" data-name="Tracé 64" d="M59.281,128.618c-.065-2.023,19.733-14.268,19.733-14.268l-.481-17.017s-12.856-5.009-19.6,9.732c0,0,.383,22.45.351,21.544Z" transform="translate(193.332 -27.302)" fill="#6cf"/>
      <path id="Tracé_65-2" data-name="Tracé 65" d="M187.975,154.312c.057-1.64-16.495-11.453-16.495-11.453L172,127.489s10.385-4.046,15.834,7.864c0,0,.114,19.692.139,18.958" transform="translate(172.595 -32.887)" fill="#fc6"/>
      <path id="Tracé_66-2" data-name="Tracé 66" d="M152.155,133.012c.057-1.64-16.495-11.453-16.495-11.453l.522-15.369s10.385-4.046,15.834,7.864c0,0,.114,19.692.139,18.958" transform="translate(179.195 -28.963)" fill="#fc6"/>
      <g id="Groupe_35-2" data-name="Groupe 35" transform="translate(192 99.017)">
        <g id="Groupe_29-8" data-name="Groupe 29" transform="translate(0 0)" clip-path="url(#clip-path)">
          <rect id="Rectangle_21-8" data-name="Rectangle 21" width="192" height="91.725" transform="translate(0 0)" fill="url(#linear-gradient)"/>
        </g>
      </g>
    </g>
    <g id="Groupe_39" data-name="Groupe 39" transform="translate(1744 525.078)">
      <g id="Groupe_30-3" data-name="Groupe 30" transform="translate(0)">
        <g id="Groupe_29-9" data-name="Groupe 29" transform="translate(0 0)" clip-path="url(#clip-path)">
          <rect id="Rectangle_21-9" data-name="Rectangle 21" width="192" height="91.725" transform="translate(0 0)" fill="url(#linear-gradient)"/>
        </g>
      </g>
      <path id="Tracé_59-3" data-name="Tracé 59" d="M14.131,151.288c-.065-2.023,19.733-14.268,19.733-14.268L33.383,120S20.526,115,13.78,129.736c0,0,.383,22.45.351,21.544Z" transform="translate(9.65 -31.479)" fill="#6cf"/>
      <path id="Tracé_60-3" data-name="Tracé 60" d="M59.281,128.618c-.065-2.023,19.733-14.268,19.733-14.268l-.481-17.017s-12.856-5.009-19.6,9.732c0,0,.383,22.45.351,21.544Z" transform="translate(1.332 -27.302)" fill="#6cf"/>
      <path id="Tracé_61-3" data-name="Tracé 61" d="M187.975,154.312c.057-1.64-16.495-11.453-16.495-11.453L172,127.489s10.385-4.046,15.834,7.864c0,0,.114,19.692.139,18.958" transform="translate(-19.405 -32.887)" fill="#fc6"/>
      <path id="Tracé_62-3" data-name="Tracé 62" d="M152.155,133.012c.057-1.64-16.495-11.453-16.495-11.453l.522-15.369s10.385-4.046,15.834,7.864c0,0,.114,19.692.139,18.958" transform="translate(-12.805 -28.963)" fill="#fc6"/>
      <g id="Groupe_32-3" data-name="Groupe 32" transform="translate(0 99.017)">
        <g id="Groupe_29-10" data-name="Groupe 29" transform="translate(0 0)" clip-path="url(#clip-path)">
          <rect id="Rectangle_21-10" data-name="Rectangle 21" width="192" height="91.725" transform="translate(0 0)" fill="url(#linear-gradient)"/>
        </g>
      </g>
      <g id="Groupe_34-3" data-name="Groupe 34" transform="translate(192)">
        <g id="Groupe_29-11" data-name="Groupe 29" transform="translate(0 0)" clip-path="url(#clip-path)">
          <rect id="Rectangle_21-11" data-name="Rectangle 21" width="192" height="91.725" transform="translate(0 0)" fill="url(#linear-gradient)"/>
        </g>
      </g>
      <path id="Tracé_63-3" data-name="Tracé 63" d="M14.131,151.288c-.065-2.023,19.733-14.268,19.733-14.268L33.383,120S20.526,115,13.78,129.736c0,0,.383,22.45.351,21.544Z" transform="translate(201.65 -31.479)" fill="#6cf"/>
      <path id="Tracé_64-3" data-name="Tracé 64" d="M59.281,128.618c-.065-2.023,19.733-14.268,19.733-14.268l-.481-17.017s-12.856-5.009-19.6,9.732c0,0,.383,22.45.351,21.544Z" transform="translate(193.332 -27.302)" fill="#6cf"/>
      <path id="Tracé_65-3" data-name="Tracé 65" d="M187.975,154.312c.057-1.64-16.495-11.453-16.495-11.453L172,127.489s10.385-4.046,15.834,7.864c0,0,.114,19.692.139,18.958" transform="translate(172.595 -32.887)" fill="#fc6"/>
      <path id="Tracé_66-3" data-name="Tracé 66" d="M152.155,133.012c.057-1.64-16.495-11.453-16.495-11.453l.522-15.369s10.385-4.046,15.834,7.864c0,0,.114,19.692.139,18.958" transform="translate(179.195 -28.963)" fill="#fc6"/>
      <g id="Groupe_35-3" data-name="Groupe 35" transform="translate(192 99.017)">
        <g id="Groupe_29-12" data-name="Groupe 29" transform="translate(0 0)" clip-path="url(#clip-path)">
          <rect id="Rectangle_21-12" data-name="Rectangle 21" width="192" height="91.725" transform="translate(0 0)" fill="url(#linear-gradient)"/>
        </g>
      </g>
    </g>
    <g id="Groupe_42" data-name="Groupe 42" transform="translate(976 429.75)">
      <g id="Groupe_32-4" data-name="Groupe 32" transform="translate(0 99.017)">
        <g id="Groupe_29-13" data-name="Groupe 29" transform="translate(0 0)" clip-path="url(#clip-path)">
          <rect id="Rectangle_21-13" data-name="Rectangle 21" width="192" height="91.725" transform="translate(0 0)" fill="url(#linear-gradient)"/>
        </g>
      </g>
      <g id="Groupe_34-4" data-name="Groupe 34" transform="translate(192)">
        <g id="Groupe_29-14" data-name="Groupe 29" transform="translate(0 0)" clip-path="url(#clip-path)">
          <rect id="Rectangle_21-14" data-name="Rectangle 21" width="192" height="91.725" transform="translate(0 0)" fill="url(#linear-gradient)"/>
        </g>
      </g>
      <path id="Tracé_63-4" data-name="Tracé 63" d="M14.131,151.288c-.065-2.023,19.733-14.268,19.733-14.268L33.383,120S20.526,115,13.78,129.736c0,0,.383,22.45.351,21.544Z" transform="translate(201.65 -31.479)" fill="#6cf"/>
      <path id="Tracé_64-4" data-name="Tracé 64" d="M59.281,128.618c-.065-2.023,19.733-14.268,19.733-14.268l-.481-17.017s-12.856-5.009-19.6,9.732c0,0,.383,22.45.351,21.544Z" transform="translate(193.332 -27.302)" fill="#6cf"/>
      <path id="Tracé_65-4" data-name="Tracé 65" d="M187.975,154.312c.057-1.64-16.495-11.453-16.495-11.453L172,127.489s10.385-4.046,15.834,7.864c0,0,.114,19.692.139,18.958" transform="translate(172.595 -32.887)" fill="#fc6"/>
      <path id="Tracé_66-4" data-name="Tracé 66" d="M152.155,133.012c.057-1.64-16.495-11.453-16.495-11.453l.522-15.369s10.385-4.046,15.834,7.864c0,0,.114,19.692.139,18.958" transform="translate(179.195 -28.963)" fill="#fc6"/>
      <g id="Groupe_35-4" data-name="Groupe 35" transform="translate(192 99.017)">
        <g id="Groupe_29-15" data-name="Groupe 29" transform="translate(0 0)" clip-path="url(#clip-path)">
          <rect id="Rectangle_21-15" data-name="Rectangle 21" width="192" height="91.725" transform="translate(0 0)" fill="url(#linear-gradient)"/>
        </g>
      </g>
    </g>
    <g id="Groupe_43" data-name="Groupe 43" transform="translate(1360 429.75)">
      <g id="Groupe_30-4" data-name="Groupe 30" transform="translate(0)">
        <g id="Groupe_29-16" data-name="Groupe 29" transform="translate(0 0)" clip-path="url(#clip-path)">
          <rect id="Rectangle_21-16" data-name="Rectangle 21" width="192" height="91.725" transform="translate(0 0)" fill="url(#linear-gradient)"/>
        </g>
      </g>
      <path id="Tracé_59-4" data-name="Tracé 59" d="M14.131,151.288c-.065-2.023,19.733-14.268,19.733-14.268L33.383,120S20.526,115,13.78,129.736c0,0,.383,22.45.351,21.544Z" transform="translate(9.65 -31.479)" fill="#6cf"/>
      <path id="Tracé_60-4" data-name="Tracé 60" d="M59.281,128.618c-.065-2.023,19.733-14.268,19.733-14.268l-.481-17.017s-12.856-5.009-19.6,9.732c0,0,.383,22.45.351,21.544Z" transform="translate(1.332 -27.302)" fill="#6cf"/>
      <path id="Tracé_61-4" data-name="Tracé 61" d="M187.975,154.312c.057-1.64-16.495-11.453-16.495-11.453L172,127.489s10.385-4.046,15.834,7.864c0,0,.114,19.692.139,18.958" transform="translate(-19.405 -32.887)" fill="#fc6"/>
      <path id="Tracé_62-4" data-name="Tracé 62" d="M152.155,133.012c.057-1.64-16.495-11.453-16.495-11.453l.522-15.369s10.385-4.046,15.834,7.864c0,0,.114,19.692.139,18.958" transform="translate(-12.805 -28.963)" fill="#fc6"/>
      <g id="Groupe_32-5" data-name="Groupe 32" transform="translate(0 99.017)">
        <g id="Groupe_29-17" data-name="Groupe 29" transform="translate(0 0)" clip-path="url(#clip-path)">
          <rect id="Rectangle_21-17" data-name="Rectangle 21" width="192" height="91.725" transform="translate(0 0)" fill="url(#linear-gradient)"/>
        </g>
      </g>
      <g id="Groupe_34-5" data-name="Groupe 34" transform="translate(192)">
        <g id="Groupe_29-18" data-name="Groupe 29" transform="translate(0 0)" clip-path="url(#clip-path)">
          <rect id="Rectangle_21-18" data-name="Rectangle 21" width="192" height="91.725" transform="translate(0 0)" fill="url(#linear-gradient)"/>
        </g>
      </g>
      <path id="Tracé_63-5" data-name="Tracé 63" d="M14.131,151.288c-.065-2.023,19.733-14.268,19.733-14.268L33.383,120S20.526,115,13.78,129.736c0,0,.383,22.45.351,21.544Z" transform="translate(201.65 -31.479)" fill="#6cf"/>
      <path id="Tracé_64-5" data-name="Tracé 64" d="M59.281,128.618c-.065-2.023,19.733-14.268,19.733-14.268l-.481-17.017s-12.856-5.009-19.6,9.732c0,0,.383,22.45.351,21.544Z" transform="translate(193.332 -27.302)" fill="#6cf"/>
      <path id="Tracé_65-5" data-name="Tracé 65" d="M187.975,154.312c.057-1.64-16.495-11.453-16.495-11.453L172,127.489s10.385-4.046,15.834,7.864c0,0,.114,19.692.139,18.958" transform="translate(172.595 -32.887)" fill="#fc6"/>
      <path id="Tracé_66-5" data-name="Tracé 66" d="M152.155,133.012c.057-1.64-16.495-11.453-16.495-11.453l.522-15.369s10.385-4.046,15.834,7.864c0,0,.114,19.692.139,18.958" transform="translate(179.195 -28.963)" fill="#fc6"/>
      <g id="Groupe_35-5" data-name="Groupe 35" transform="translate(192 99.017)">
        <g id="Groupe_29-19" data-name="Groupe 29" transform="translate(0 0)" clip-path="url(#clip-path)">
          <rect id="Rectangle_21-19" data-name="Rectangle 21" width="192" height="91.725" transform="translate(0 0)" fill="url(#linear-gradient)"/>
        </g>
      </g>
    </g>
    <g id="Groupe_44" data-name="Groupe 44" transform="translate(1744 429.75)">
      <g id="Groupe_30-5" data-name="Groupe 30" transform="translate(0)">
        <g id="Groupe_29-20" data-name="Groupe 29" transform="translate(0 0)" clip-path="url(#clip-path)">
          <rect id="Rectangle_21-20" data-name="Rectangle 21" width="192" height="91.725" transform="translate(0 0)" fill="url(#linear-gradient)"/>
        </g>
      </g>
      <path id="Tracé_59-5" data-name="Tracé 59" d="M14.131,151.288c-.065-2.023,19.733-14.268,19.733-14.268L33.383,120S20.526,115,13.78,129.736c0,0,.383,22.45.351,21.544Z" transform="translate(9.65 -31.479)" fill="#6cf"/>
      <path id="Tracé_60-5" data-name="Tracé 60" d="M59.281,128.618c-.065-2.023,19.733-14.268,19.733-14.268l-.481-17.017s-12.856-5.009-19.6,9.732c0,0,.383,22.45.351,21.544Z" transform="translate(1.332 -27.302)" fill="#6cf"/>
      <path id="Tracé_61-5" data-name="Tracé 61" d="M187.975,154.312c.057-1.64-16.495-11.453-16.495-11.453L172,127.489s10.385-4.046,15.834,7.864c0,0,.114,19.692.139,18.958" transform="translate(-19.405 -32.887)" fill="#fc6"/>
      <path id="Tracé_62-5" data-name="Tracé 62" d="M152.155,133.012c.057-1.64-16.495-11.453-16.495-11.453l.522-15.369s10.385-4.046,15.834,7.864c0,0,.114,19.692.139,18.958" transform="translate(-12.805 -28.963)" fill="#fc6"/>
      <g id="Groupe_32-6" data-name="Groupe 32" transform="translate(0 99.017)">
        <g id="Groupe_29-21" data-name="Groupe 29" transform="translate(0 0)" clip-path="url(#clip-path)">
          <rect id="Rectangle_21-21" data-name="Rectangle 21" width="192" height="91.725" transform="translate(0 0)" fill="url(#linear-gradient)"/>
        </g>
      </g>
      <g id="Groupe_34-6" data-name="Groupe 34" transform="translate(192)">
        <g id="Groupe_29-22" data-name="Groupe 29" transform="translate(0 0)" clip-path="url(#clip-path)">
          <rect id="Rectangle_21-22" data-name="Rectangle 21" width="192" height="91.725" transform="translate(0 0)" fill="url(#linear-gradient)"/>
        </g>
      </g>
      <path id="Tracé_63-6" data-name="Tracé 63" d="M14.131,151.288c-.065-2.023,19.733-14.268,19.733-14.268L33.383,120S20.526,115,13.78,129.736c0,0,.383,22.45.351,21.544Z" transform="translate(201.65 -31.479)" fill="#6cf"/>
      <path id="Tracé_64-6" data-name="Tracé 64" d="M59.281,128.618c-.065-2.023,19.733-14.268,19.733-14.268l-.481-17.017s-12.856-5.009-19.6,9.732c0,0,.383,22.45.351,21.544Z" transform="translate(193.332 -27.302)" fill="#6cf"/>
      <path id="Tracé_65-6" data-name="Tracé 65" d="M187.975,154.312c.057-1.64-16.495-11.453-16.495-11.453L172,127.489s10.385-4.046,15.834,7.864c0,0,.114,19.692.139,18.958" transform="translate(172.595 -32.887)" fill="#fc6"/>
      <path id="Tracé_66-6" data-name="Tracé 66" d="M152.155,133.012c.057-1.64-16.495-11.453-16.495-11.453l.522-15.369s10.385-4.046,15.834,7.864c0,0,.114,19.692.139,18.958" transform="translate(179.195 -28.963)" fill="#fc6"/>
      <g id="Groupe_35-6" data-name="Groupe 35" transform="translate(192 99.017)">
        <g id="Groupe_29-23" data-name="Groupe 29" transform="translate(0 0)" clip-path="url(#clip-path)">
          <rect id="Rectangle_21-23" data-name="Rectangle 21" width="192" height="91.725" transform="translate(0 0)" fill="url(#linear-gradient)"/>
        </g>
      </g>
    </g>
    <g id="Groupe_119" data-name="Groupe 119" transform="translate(592 -417)">
      <g id="Groupe_118" data-name="Groupe 118" transform="translate(960 741.749)">
        <g id="Groupe_29-24" data-name="Groupe 29" transform="translate(0 0)" clip-path="url(#clip-path)">
          <rect id="Rectangle_21-24" data-name="Rectangle 21" width="192" height="91.725" transform="translate(0 0)" fill="url(#linear-gradient)"/>
        </g>
      </g>
      <path id="Tracé_278" data-name="Tracé 278" d="M14.131,151.288c-.065-2.023,19.733-14.268,19.733-14.268L33.383,120S20.526,115,13.78,129.736c0,0,.383,22.45.351,21.544Z" transform="translate(969.65 710.271)" fill="#6cf"/>
      <path id="Tracé_279" data-name="Tracé 279" d="M59.281,128.618c-.065-2.023,19.733-14.268,19.733-14.268l-.481-17.017s-12.856-5.009-19.6,9.732c0,0,.383,22.45.351,21.544Z" transform="translate(961.332 714.448)" fill="#6cf"/>
      <path id="Tracé_280" data-name="Tracé 280" d="M187.975,154.312c.057-1.64-16.495-11.453-16.495-11.453L172,127.489s10.385-4.046,15.834,7.864c0,0,.114,19.692.139,18.958" transform="translate(940.595 708.862)" fill="#fc6"/>
      <path id="Tracé_281" data-name="Tracé 281" d="M152.155,133.012c.057-1.64-16.495-11.453-16.495-11.453l.522-15.369s10.385-4.046,15.834,7.864c0,0,.114,19.692.139,18.958" transform="translate(947.195 712.787)" fill="#fc6"/>
    </g>
    <g id="Groupe_120" data-name="Groupe 120" transform="translate(592 -519.75)">
      <g id="Groupe_118-2" data-name="Groupe 118" transform="translate(960 741.749)">
        <g id="Groupe_29-25" data-name="Groupe 29" transform="translate(0 0)" clip-path="url(#clip-path)">
          <rect id="Rectangle_21-25" data-name="Rectangle 21" width="192" height="91.725" transform="translate(0 0)" fill="url(#linear-gradient)"/>
        </g>
      </g>
      <path id="Tracé_278-2" data-name="Tracé 278" d="M14.131,151.288c-.065-2.023,19.733-14.268,19.733-14.268L33.383,120S20.526,115,13.78,129.736c0,0,.383,22.45.351,21.544Z" transform="translate(969.65 710.271)" fill="#6cf"/>
      <path id="Tracé_279-2" data-name="Tracé 279" d="M59.281,128.618c-.065-2.023,19.733-14.268,19.733-14.268l-.481-17.017s-12.856-5.009-19.6,9.732c0,0,.383,22.45.351,21.544Z" transform="translate(961.332 714.448)" fill="#6cf"/>
      <path id="Tracé_280-2" data-name="Tracé 280" d="M187.975,154.312c.057-1.64-16.495-11.453-16.495-11.453L172,127.489s10.385-4.046,15.834,7.864c0,0,.114,19.692.139,18.958" transform="translate(940.595 708.862)" fill="#fc6"/>
      <path id="Tracé_281-2" data-name="Tracé 281" d="M152.155,133.012c.057-1.64-16.495-11.453-16.495-11.453l.522-15.369s10.385-4.046,15.834,7.864c0,0,.114,19.692.139,18.958" transform="translate(947.195 712.787)" fill="#fc6"/>
    </g>
    <g id="Groupe_121" data-name="Groupe 121" transform="translate(784 -418.617)">
      <g id="Groupe_118-3" data-name="Groupe 118" transform="translate(960 741.749)">
        <g id="Groupe_29-26" data-name="Groupe 29" transform="translate(0 0)" clip-path="url(#clip-path)">
          <rect id="Rectangle_21-26" data-name="Rectangle 21" width="192" height="91.725" transform="translate(0 0)" fill="url(#linear-gradient)"/>
        </g>
      </g>
      <path id="Tracé_278-3" data-name="Tracé 278" d="M14.131,151.288c-.065-2.023,19.733-14.268,19.733-14.268L33.383,120S20.526,115,13.78,129.736c0,0,.383,22.45.351,21.544Z" transform="translate(969.65 710.271)" fill="#6cf"/>
      <path id="Tracé_279-3" data-name="Tracé 279" d="M59.281,128.618c-.065-2.023,19.733-14.268,19.733-14.268l-.481-17.017s-12.856-5.009-19.6,9.732c0,0,.383,22.45.351,21.544Z" transform="translate(961.332 714.448)" fill="#6cf"/>
      <path id="Tracé_280-3" data-name="Tracé 280" d="M187.975,154.312c.057-1.64-16.495-11.453-16.495-11.453L172,127.489s10.385-4.046,15.834,7.864c0,0,.114,19.692.139,18.958" transform="translate(940.595 708.862)" fill="#fc6"/>
      <path id="Tracé_281-3" data-name="Tracé 281" d="M152.155,133.012c.057-1.64-16.495-11.453-16.495-11.453l.522-15.369s10.385-4.046,15.834,7.864c0,0,.114,19.692.139,18.958" transform="translate(947.195 712.787)" fill="#fc6"/>
    </g>
  </g>
</svg>
