<svg xmlns="http://www.w3.org/2000/svg" xmlns:xlink="http://www.w3.org/1999/xlink" width="885.346" height="442.588" viewBox="0 0 885.346 442.588">
  <defs>
    <clipPath id="clip-path">
      <path id="Tracé_58" data-name="Tracé 58" d="M112.467,0a.418.418,0,0,0-.187.051L.216,61.907A.419.419,0,0,0,0,62.274v42.948a.42.42,0,0,0,.412.42H.426a.431.431,0,0,0,.2-.052L111.044,44.576a.415.415,0,0,1,.406,0l109.262,61.006a.419.419,0,0,0,.624-.367V62.452a.42.42,0,0,0-.212-.364L112.691.055A.421.421,0,0,0,112.5,0Z" fill="#facc6e"/>
    </clipPath>
  </defs>
  <g id="Groupe_145" data-name="Groupe 145" transform="translate(-192 -1182.133)">
    <g id="Groupe_33" data-name="Groupe 33" transform="translate(192 1404.934)">
      <g id="Groupe_30" data-name="Groupe 30" transform="translate(0 0)">
        <g id="Groupe_29" data-name="Groupe 29" clip-path="url(#clip-path)">
          <rect id="Rectangle_21" data-name="Rectangle 21" width="221.336" height="105.74" transform="translate(0 0)" fill="#facc6e"/>
        </g>
      </g>
      <path id="Tracé_59" data-name="Tracé 59" d="M14.184,156.193c-.075-2.332,22.748-16.448,22.748-16.448l-.555-19.617s-14.821-5.774-22.6,11.219c0,0,.442,25.88.4,24.836Z" transform="translate(13.23 -18.078)" fill="#facc6e"/>
      <path id="Tracé_60" data-name="Tracé 60" d="M59.334,133.523c-.075-2.332,22.748-16.448,22.748-16.448l-.555-19.617s-14.821-5.774-22.6,11.219c0,0,.442,25.88.4,24.836Z" transform="translate(10.539 -16.727)" fill="#facc6e"/>
      <path id="Tracé_61" data-name="Tracé 61" d="M190.495,158.511c.066-1.89-19.015-13.2-19.015-13.2l.6-17.717s11.971-4.664,18.253,9.065c0,0,.132,22.7.16,21.855" transform="translate(3.831 -18.534)" fill="#facc6e"/>
      <path id="Tracé_62" data-name="Tracé 62" d="M154.675,137.211c.066-1.89-19.015-13.2-19.015-13.2l.6-17.717s11.971-4.664,18.253,9.065c0,0,.132,22.7.16,21.855" transform="translate(5.966 -17.264)" fill="#facc6e"/>
      <g id="Groupe_32" data-name="Groupe 32" transform="translate(0 114.146)">
        <g id="Groupe_29-2" data-name="Groupe 29" transform="translate(0 0)" clip-path="url(#clip-path)">
          <rect id="Rectangle_21-2" data-name="Rectangle 21" width="221.336" height="105.74" transform="translate(0 0)" fill="#facc6e"/>
        </g>
      </g>
      <g id="Groupe_34" data-name="Groupe 34" transform="translate(221.336 0)">
        <g id="Groupe_29-3" data-name="Groupe 29" transform="translate(0)" clip-path="url(#clip-path)">
          <rect id="Rectangle_21-3" data-name="Rectangle 21" width="221.336" height="105.74" transform="translate(0 0)" fill="#facc6e"/>
        </g>
      </g>
      <path id="Tracé_63" data-name="Tracé 63" d="M14.184,156.193c-.075-2.332,22.748-16.448,22.748-16.448l-.555-19.617s-14.821-5.774-22.6,11.219c0,0,.442,25.88.4,24.836Z" transform="translate(234.567 -18.078)" fill="#facc6e"/>
      <path id="Tracé_64" data-name="Tracé 64" d="M59.334,133.523c-.075-2.332,22.748-16.448,22.748-16.448l-.555-19.617s-14.821-5.774-22.6,11.219c0,0,.442,25.88.4,24.836Z" transform="translate(231.876 -16.727)" fill="#facc6e"/>
      <path id="Tracé_65" data-name="Tracé 65" d="M190.495,158.511c.066-1.89-19.015-13.2-19.015-13.2l.6-17.717s11.971-4.664,18.253,9.065c0,0,.132,22.7.16,21.855" transform="translate(225.168 -18.534)" fill="#facc6e"/>
      <path id="Tracé_66" data-name="Tracé 66" d="M154.675,137.211c.066-1.89-19.015-13.2-19.015-13.2l.6-17.717s11.971-4.664,18.253,9.065c0,0,.132,22.7.16,21.855" transform="translate(227.303 -17.264)" fill="#facc6e"/>
      <g id="Groupe_35" data-name="Groupe 35" transform="translate(221.336 114.146)">
        <g id="Groupe_29-4" data-name="Groupe 29" transform="translate(0 0)" clip-path="url(#clip-path)">
          <rect id="Rectangle_21-4" data-name="Rectangle 21" width="221.336" height="105.74" transform="translate(0 0)" fill="#facc6e"/>
        </g>
      </g>
    </g>
    <g id="Groupe_36" data-name="Groupe 36" transform="translate(634.673 1404.934)">
      <g id="Groupe_30-2" data-name="Groupe 30" transform="translate(0 0)">
        <g id="Groupe_29-5" data-name="Groupe 29" clip-path="url(#clip-path)">
          <rect id="Rectangle_21-5" data-name="Rectangle 21" width="221.336" height="105.74" transform="translate(0 0)" fill="#facc6e"/>
        </g>
      </g>
      <path id="Tracé_59-2" data-name="Tracé 59" d="M14.184,156.193c-.075-2.332,22.748-16.448,22.748-16.448l-.555-19.617s-14.821-5.774-22.6,11.219c0,0,.442,25.88.4,24.836Z" transform="translate(13.23 -18.078)" fill="#facc6e"/>
      <path id="Tracé_60-2" data-name="Tracé 60" d="M59.334,133.523c-.075-2.332,22.748-16.448,22.748-16.448l-.555-19.617s-14.821-5.774-22.6,11.219c0,0,.442,25.88.4,24.836Z" transform="translate(10.539 -16.727)" fill="#facc6e"/>
      <path id="Tracé_61-2" data-name="Tracé 61" d="M190.495,158.511c.066-1.89-19.015-13.2-19.015-13.2l.6-17.717s11.971-4.664,18.253,9.065c0,0,.132,22.7.16,21.855" transform="translate(3.831 -18.534)" fill="#facc6e"/>
      <path id="Tracé_62-2" data-name="Tracé 62" d="M154.675,137.211c.066-1.89-19.015-13.2-19.015-13.2l.6-17.717s11.971-4.664,18.253,9.065c0,0,.132,22.7.16,21.855" transform="translate(5.966 -17.264)" fill="#facc6e"/>
      <g id="Groupe_32-2" data-name="Groupe 32" transform="translate(0 114.146)">
        <g id="Groupe_29-6" data-name="Groupe 29" transform="translate(0 0)" clip-path="url(#clip-path)">
          <rect id="Rectangle_21-6" data-name="Rectangle 21" width="221.336" height="105.74" transform="translate(0 0)" fill="#facc6e"/>
        </g>
      </g>
      <g id="Groupe_34-2" data-name="Groupe 34" transform="translate(221.336 0)">
        <g id="Groupe_29-7" data-name="Groupe 29" transform="translate(0)" clip-path="url(#clip-path)">
          <rect id="Rectangle_21-7" data-name="Rectangle 21" width="221.336" height="105.74" transform="translate(0 0)" fill="#facc6e"/>
        </g>
      </g>
      <path id="Tracé_63-2" data-name="Tracé 63" d="M14.184,156.193c-.075-2.332,22.748-16.448,22.748-16.448l-.555-19.617s-14.821-5.774-22.6,11.219c0,0,.442,25.88.4,24.836Z" transform="translate(234.567 -18.078)" fill="#facc6e"/>
      <path id="Tracé_64-2" data-name="Tracé 64" d="M59.334,133.523c-.075-2.332,22.748-16.448,22.748-16.448l-.555-19.617s-14.821-5.774-22.6,11.219c0,0,.442,25.88.4,24.836Z" transform="translate(231.876 -16.727)" fill="#facc6e"/>
      <path id="Tracé_65-2" data-name="Tracé 65" d="M190.495,158.511c.066-1.89-19.015-13.2-19.015-13.2l.6-17.717s11.971-4.664,18.253,9.065c0,0,.132,22.7.16,21.855" transform="translate(225.168 -18.534)" fill="#facc6e"/>
      <path id="Tracé_66-2" data-name="Tracé 66" d="M154.675,137.211c.066-1.89-19.015-13.2-19.015-13.2l.6-17.717s11.971-4.664,18.253,9.065c0,0,.132,22.7.16,21.855" transform="translate(227.303 -17.264)" fill="#facc6e"/>
      <g id="Groupe_35-2" data-name="Groupe 35" transform="translate(221.336 114.146)">
        <g id="Groupe_29-8" data-name="Groupe 29" transform="translate(0 0)" clip-path="url(#clip-path)">
          <rect id="Rectangle_21-8" data-name="Rectangle 21" width="221.336" height="105.74" transform="translate(0 0)" fill="#facc6e"/>
        </g>
      </g>
    </g>
    <g id="Groupe_40" data-name="Groupe 40" transform="translate(192 1295.04)">
      <g id="Groupe_30-3" data-name="Groupe 30" transform="translate(663 -1.864)">
        <g id="Groupe_29-9" data-name="Groupe 29" clip-path="url(#clip-path)">
          <rect id="Rectangle_21-9" data-name="Rectangle 21" width="221.336" height="105.74" transform="translate(0 0)" fill="#facc6e"/>
        </g>
      </g>
      <path id="Tracé_59-3" data-name="Tracé 59" d="M14.184,156.193c-.075-2.332,22.748-16.448,22.748-16.448l-.555-19.617s-14.821-5.774-22.6,11.219c0,0,.442,25.88.4,24.836Z" transform="translate(676.23 -19.941)" fill="#facc6e"/>
      <path id="Tracé_60-3" data-name="Tracé 60" d="M59.334,133.523c-.075-2.332,22.748-16.448,22.748-16.448l-.555-19.617s-14.821-5.774-22.6,11.219c0,0,.442,25.88.4,24.836Z" transform="translate(673.539 -18.59)" fill="#facc6e"/>
      <path id="Tracé_61-3" data-name="Tracé 61" d="M190.495,158.511c.066-1.89-19.015-13.2-19.015-13.2l.6-17.717s11.971-4.664,18.253,9.065c0,0,.132,22.7.16,21.855" transform="translate(666.831 -20.397)" fill="#facc6e"/>
      <path id="Tracé_62-3" data-name="Tracé 62" d="M154.675,137.211c.066-1.89-19.015-13.2-19.015-13.2l.6-17.717s11.971-4.664,18.253,9.065c0,0,.132,22.7.16,21.855" transform="translate(668.966 -19.128)" fill="#facc6e"/>
      <g id="Groupe_32-3" data-name="Groupe 32" transform="translate(0 114.146)">
        <g id="Groupe_29-10" data-name="Groupe 29" transform="translate(0 0)" clip-path="url(#clip-path)">
          <rect id="Rectangle_21-10" data-name="Rectangle 21" width="221.336" height="105.74" transform="translate(0 0)" fill="#facc6e"/>
        </g>
      </g>
      <g id="Groupe_34-3" data-name="Groupe 34" transform="translate(221.336 0)">
        <g id="Groupe_29-11" data-name="Groupe 29" transform="translate(0)" clip-path="url(#clip-path)">
          <rect id="Rectangle_21-11" data-name="Rectangle 21" width="221.336" height="105.74" transform="translate(0 0)" fill="#facc6e"/>
        </g>
      </g>
      <path id="Tracé_63-3" data-name="Tracé 63" d="M14.184,156.193c-.075-2.332,22.748-16.448,22.748-16.448l-.555-19.617s-14.821-5.774-22.6,11.219c0,0,.442,25.88.4,24.836Z" transform="translate(234.567 -18.078)" fill="#facc6e"/>
      <path id="Tracé_64-3" data-name="Tracé 64" d="M59.334,133.523c-.075-2.332,22.748-16.448,22.748-16.448l-.555-19.617s-14.821-5.774-22.6,11.219c0,0,.442,25.88.4,24.836Z" transform="translate(231.876 -16.727)" fill="#facc6e"/>
      <path id="Tracé_65-3" data-name="Tracé 65" d="M190.495,158.511c.066-1.89-19.015-13.2-19.015-13.2l.6-17.717s11.971-4.664,18.253,9.065c0,0,.132,22.7.16,21.855" transform="translate(225.168 -18.534)" fill="#facc6e"/>
      <path id="Tracé_66-3" data-name="Tracé 66" d="M154.675,137.211c.066-1.89-19.015-13.2-19.015-13.2l.6-17.717s11.971-4.664,18.253,9.065c0,0,.132,22.7.16,21.855" transform="translate(227.303 -17.264)" fill="#facc6e"/>
      <g id="Groupe_35-3" data-name="Groupe 35" transform="translate(221.336 114.146)">
        <g id="Groupe_29-12" data-name="Groupe 29" transform="translate(0 0)" clip-path="url(#clip-path)">
          <rect id="Rectangle_21-12" data-name="Rectangle 21" width="221.336" height="105.74" transform="translate(0 0)" fill="#facc6e"/>
        </g>
      </g>
    </g>
    <g id="Groupe_41" data-name="Groupe 41" transform="translate(634.673 1295.04)">
      <g id="Groupe_30-4" data-name="Groupe 30" transform="translate(0 0)">
        <g id="Groupe_29-13" data-name="Groupe 29" clip-path="url(#clip-path)">
          <rect id="Rectangle_21-13" data-name="Rectangle 21" width="221.336" height="105.74" transform="translate(0 0)" fill="#facc6e"/>
        </g>
      </g>
      <path id="Tracé_59-4" data-name="Tracé 59" d="M14.184,156.193c-.075-2.332,22.748-16.448,22.748-16.448l-.555-19.617s-14.821-5.774-22.6,11.219c0,0,.442,25.88.4,24.836Z" transform="translate(13.23 -18.078)" fill="#facc6e"/>
      <path id="Tracé_60-4" data-name="Tracé 60" d="M59.334,133.523c-.075-2.332,22.748-16.448,22.748-16.448l-.555-19.617s-14.821-5.774-22.6,11.219c0,0,.442,25.88.4,24.836Z" transform="translate(10.539 -16.727)" fill="#facc6e"/>
      <path id="Tracé_61-4" data-name="Tracé 61" d="M190.495,158.511c.066-1.89-19.015-13.2-19.015-13.2l.6-17.717s11.971-4.664,18.253,9.065c0,0,.132,22.7.16,21.855" transform="translate(3.831 -18.534)" fill="#facc6e"/>
      <path id="Tracé_62-4" data-name="Tracé 62" d="M154.675,137.211c.066-1.89-19.015-13.2-19.015-13.2l.6-17.717s11.971-4.664,18.253,9.065c0,0,.132,22.7.16,21.855" transform="translate(5.966 -17.264)" fill="#facc6e"/>
      <g id="Groupe_32-4" data-name="Groupe 32" transform="translate(0 114.146)">
        <g id="Groupe_29-14" data-name="Groupe 29" transform="translate(0 0)" clip-path="url(#clip-path)">
          <rect id="Rectangle_21-14" data-name="Rectangle 21" width="221.336" height="105.74" transform="translate(0 0)" fill="#facc6e"/>
        </g>
      </g>
      <g id="Groupe_35-4" data-name="Groupe 35" transform="translate(221.336 114.146)">
        <g id="Groupe_29-15" data-name="Groupe 29" transform="translate(0 0)" clip-path="url(#clip-path)">
          <rect id="Rectangle_21-15" data-name="Rectangle 21" width="221.336" height="105.74" transform="translate(0 0)" fill="#facc6e"/>
        </g>
      </g>
    </g>
    <g id="Groupe_122" data-name="Groupe 122" transform="translate(634.673 1182.133)">
      <g id="Groupe_118" data-name="Groupe 118">
        <g id="Groupe_29-16" data-name="Groupe 29" transform="translate(0 0)" clip-path="url(#clip-path)">
          <rect id="Rectangle_21-16" data-name="Rectangle 21" width="221.336" height="105.74" transform="translate(0 0)" fill="#facc6e"/>
        </g>
      </g>
      <path id="Tracé_278" data-name="Tracé 278" d="M14.184,156.193c-.075-2.332,22.748-16.448,22.748-16.448l-.555-19.617s-14.821-5.774-22.6,11.219c0,0,.442,25.88.4,24.836Z" transform="translate(13.23 -18.078)" fill="#facc6e"/>
      <path id="Tracé_279" data-name="Tracé 279" d="M59.334,133.523c-.075-2.332,22.748-16.448,22.748-16.448l-.555-19.617s-14.821-5.774-22.6,11.219c0,0,.442,25.88.4,24.836Z" transform="translate(10.539 -16.727)" fill="#facc6e"/>
      <path id="Tracé_280" data-name="Tracé 280" d="M190.495,158.511c.066-1.89-19.015-13.2-19.015-13.2l.6-17.717s11.971-4.664,18.253,9.065c0,0,.132,22.7.16,21.855" transform="translate(3.831 -18.534)" fill="#facc6e"/>
      <path id="Tracé_281" data-name="Tracé 281" d="M154.675,137.211c.066-1.89-19.015-13.2-19.015-13.2l.6-17.717s11.971-4.664,18.253,9.065c0,0,.132,22.7.16,21.855" transform="translate(5.966 -17.264)" fill="#facc6e"/>
    </g>
  </g>
</svg>
