<?xml version="1.0" encoding="utf-8"?>
<!-- Generator: $$$/GeneralStr/196=Adobe Illustrator 27.6.0, SVG Export Plug-In . SVG Version: 6.00 Build 0)  -->
<svg version="1.1" id="Layer_1" xmlns="http://www.w3.org/2000/svg" xmlns:xlink="http://www.w3.org/1999/xlink" x="0px" y="0px"
	 viewBox="0 0 221.3 44" style="enable-background:new 0 0 221.3 44;" xml:space="preserve">
<style type="text/css">
	.st0{fill:#66CCFF;}
</style>
<g>
	<path class="st0" d="M60.9,20L60.9,20v2.3v2.1h-9.4c-2.3,0-4.1,0.2-5.4,0.8c-1.2,0.4-2.3,1.2-2.9,2.3c-0.8,1-1,2.1-1,3.3
		c0,1.9,0.6,3.3,1.9,4.5c1.4,1.2,3.5,1.9,6.2,1.9h10.6v4.1H50.5c-3.3,0-6-0.4-7.7-1c-1.9-0.6-3.3-1.9-4.3-3.7
		c-1-1.7-1.7-3.5-1.7-5.8c0-2.7,1-5,2.7-6.8c0.6-0.6,1.4-1.2,2.5-1.7c-1-0.6-1.9-1.2-2.5-1.9c-1.7-1.9-2.7-4.1-2.7-6.8
		c0-2.1,0.6-4.1,1.7-5.8c1-1.9,2.5-2.9,4.3-3.7c1.7-0.6,4.3-1,7.7-1h10.4v4.3H50.3c-2.7,0-4.8,0.6-6.2,1.7c-1.2,1.2-1.9,2.7-1.9,4.5
		c0,1.2,0.2,2.3,1,3.3c0.6,1,1.7,1.9,2.9,2.5c1.2,0.4,3.1,0.6,5.4,0.6C51.5,20,60.9,20,60.9,20z"/>
	<path class="st0" d="M218.3,20L218.3,20v2.3v2.1h-9.4c-2.3,0-4.1,0.2-5.4,0.8c-1.2,0.4-2.3,1.2-2.9,2.3c-0.8,1-1,2.1-1,3.3
		c0,1.9,0.6,3.3,1.9,4.5c1.4,1.2,3.5,1.9,6.2,1.9h10.6v4.1h-10.4c-3.3,0-6-0.4-7.7-1c-1.9-0.6-3.3-1.9-4.3-3.7
		c-1-1.7-1.7-3.5-1.7-5.8c0-2.7,1-5,2.7-6.8c0.6-0.6,1.4-1.2,2.5-1.7c-1-0.6-1.9-1.2-2.5-1.9c-1.7-1.9-2.7-4.1-2.7-6.8
		c0-2.1,0.6-4.1,1.7-5.8c1-1.9,2.5-2.9,4.3-3.7c1.7-0.6,4.3-1,7.7-1h10.4v4.3h-10.6c-2.7,0-4.8,0.6-6.2,1.7
		c-1.2,1.2-1.9,2.7-1.9,4.5c0,1.2,0.2,2.3,1,3.3c0.6,1,1.7,1.9,2.9,2.5c1.2,0.4,3.1,0.6,5.4,0.6C208.9,20,218.3,20,218.3,20z"/>
	<path class="st0" d="M2.9,3.1h18c7.2,0,11.6,3.9,11.6,10c0,4.6-2,8.4-6.6,9.7v0.1c4.4,0.9,5.4,4.1,5.7,7.9
		c0.3,3.7,0.1,7.9,2.2,10.5h-5.7c-1.4-1.6-0.6-5.7-1.4-9.4c-0.5-3.7-1.4-6.9-6.4-6.9H8v16.3H2.9V3.1z M18.6,20.7
		c4.8,0,8.8-1.2,8.8-6.8c0-3.7-2-6.5-6.8-6.5H8v13.3H18.6z"/>
	<path class="st0" d="M83.9,41.3h-5.8L64.6,3.1h5.5L81,36.2h0.1l11-33.1h5.3L83.9,41.3z"/>
	<path class="st0" d="M116,2.4c12,0,18,9.5,18,19.7s-6.1,19.7-18,19.7c-12,0-18-9.5-18-19.7C97.9,11.9,104,2.4,116,2.4z M116,37.7
		c9.2,0,13-7.9,13-15.5s-3.9-15.5-13-15.5c-9.2,0-13,7.9-13,15.5C102.9,29.8,106.8,37.7,116,37.7z"/>
	<path class="st0" d="M138.9,3.1h5.1V37h20.2v4.3h-25.3V3.1z"/>
	<path class="st0" d="M178.9,41.3h-5.8L159.6,3.1h5.5L176,36.2h0.1l11-33.1h5.3L178.9,41.3z"/>
</g>
</svg>
