<svg xmlns="http://www.w3.org/2000/svg" xmlns:xlink="http://www.w3.org/1999/xlink" width="26.047" height="26.038" viewBox="0 0 26.047 26.038"><defs><linearGradient id="linear-gradient" x1="1" x2="0" y2="1" gradientUnits="objectBoundingBox"><stop offset="0" stop-color="#feca44"></stop><stop offset="1" stop-color="#6cf"></stop></linearGradient></defs><path id="todo-svgrepo-com" d="M26.6,2.529,15.277,16.986l-3.706-4.238a1.371,1.371,0,1,0-2.064,1.8l4.253,4.863a2.056,2.056,0,0,0,3.166-.086L28.755,4.219A1.371,1.371,0,1,0,26.6,2.529ZM26.3,14.335a1.371,1.371,0,0,0-1.371,1.371v8.33c0,.629-.029.781-.112.938a.5.5,0,0,1-.215.215c-.155.082-.308.112-.938.112H7.007c-.629,0-.781-.03-.938-.112a.5.5,0,0,1-.215-.215c-.082-.155-.112-.308-.112-.938V6.8a.685.685,0,0,1,.685-.685l11.651.005a1.371,1.371,0,0,0,0-2.741L6.427,3.369A3.427,3.427,0,0,0,3,6.8V24.035a4.291,4.291,0,0,0,.437,2.23A3.234,3.234,0,0,0,4.776,27.6a4.288,4.288,0,0,0,2.23.437H23.666A4.291,4.291,0,0,0,25.9,27.6a3.229,3.229,0,0,0,1.341-1.339,4.3,4.3,0,0,0,.436-2.23v-8.33A1.371,1.371,0,0,0,26.3,14.335Z" transform="translate(-3 -2.003)" fill-rule="evenodd" fill="url(#linear-gradient)"></path></svg>