<svg xmlns="http://www.w3.org/2000/svg" xmlns:xlink="http://www.w3.org/1999/xlink" width="1001.966" height="597.39" viewBox="0 0 1001.966 597.39"><defs><clipPath id="clip-path"><rect id="Rect&#xE1;ngulo_77" data-name="Rect&#xE1;ngulo 77" width="250.966" height="440.587" fill="#6cf"></rect></clipPath></defs><g id="Grupo_190" data-name="Grupo 190" transform="translate(-875.5 -2943.741)"><g id="Grupo_187" data-name="Grupo 187" transform="translate(1125.517 2943.741)" style="isolation: isolate"><path id="Trazado_389" data-name="Trazado 389" d="M125.483,0,0,75.207V125.38L125.483,50.173,250.966,125.38V75.207Z" transform="translate(0 0)" fill="#6cf"></path><path id="Trazado_390" data-name="Trazado 390" d="M0,205.41v50.172l125.483-75.207,125.483,75.207V205.41L125.483,130.2Z" transform="translate(0 26.562)" fill="#6cf"></path><path id="Trazado_391" data-name="Trazado 391" d="M0,337.006v50.172l125.483-75.207,125.483,75.207V337.006L125.483,261.8Z" transform="translate(0 53.409)" fill="#6cf"></path><g id="Grupo_149" data-name="Grupo 149" transform="translate(0)"><g id="Grupo_148" data-name="Grupo 148" clip-path="url(#clip-path)"><path id="Trazado_392" data-name="Trazado 392" d="M43.6,145.26,13.54,163.309V133.253C18.006,119.511,34.454,109.281,43.6,115.2V145.26Z" transform="translate(2.762 23.152)" fill="#6cf"></path><path id="Trazado_393" data-name="Trazado 393" d="M91.662,116.434,61.605,134.483V104.426c4.466-13.743,20.914-23.971,30.057-18.049v30.057Z" transform="translate(12.568 17.271)" fill="#6cf"></path><path id="Trazado_394" data-name="Trazado 394" d="M170.211,145.26l30.057,18.049V133.253c-4.466-13.743-20.914-23.972-30.057-18.051V145.26Z" transform="translate(34.724 23.152)" fill="#6cf"></path><path id="Trazado_395" data-name="Trazado 395" d="M122.146,116.434,152.2,134.483V104.426c-4.466-13.743-20.914-23.971-30.057-18.049v30.057Z" transform="translate(24.919 17.271)" fill="#6cf"></path><path id="Trazado_396" data-name="Trazado 396" d="M43.46,277.642,13.4,295.691V265.634c4.466-13.743,20.914-23.971,30.057-18.049v30.057Z" transform="translate(2.734 50.159)" fill="#6cf"></path><path id="Trazado_397" data-name="Trazado 397" d="M91.525,248.816,61.468,266.865V236.808c4.466-13.743,20.914-23.971,30.057-18.049v30.057Z" transform="translate(12.54 44.278)" fill="#6cf"></path><path id="Trazado_398" data-name="Trazado 398" d="M170.074,277.642l30.057,18.049V265.634c-4.466-13.743-20.914-23.971-30.057-18.049v30.057Z" transform="translate(34.696 50.159)" fill="#6cf"></path><path id="Trazado_399" data-name="Trazado 399" d="M122.009,248.816l30.057,18.049V236.808c-4.466-13.743-20.914-23.971-30.057-18.049v30.057Z" transform="translate(24.891 44.278)" fill="#6cf"></path></g></g></g><g id="Grupo_188" data-name="Grupo 188" transform="translate(1375.534 3100.544)" style="isolation: isolate"><path id="Trazado_389-2" data-name="Trazado 389" d="M125.483,0,0,75.207V125.38L125.483,50.173,250.966,125.38V75.207Z" transform="translate(0 0)" fill="#6cf"></path><path id="Trazado_390-2" data-name="Trazado 390" d="M0,205.41v50.172l125.483-75.207,125.483,75.207V205.41L125.483,130.2Z" transform="translate(0 26.562)" fill="#6cf"></path><path id="Trazado_391-2" data-name="Trazado 391" d="M0,337.006v50.172l125.483-75.207,125.483,75.207V337.006L125.483,261.8Z" transform="translate(0 53.409)" fill="#6cf"></path><g id="Grupo_149-2" data-name="Grupo 149" transform="translate(0)"><g id="Grupo_148-2" data-name="Grupo 148" clip-path="url(#clip-path)"><path id="Trazado_392-2" data-name="Trazado 392" d="M43.6,145.26,13.54,163.309V133.253C18.006,119.511,34.454,109.281,43.6,115.2V145.26Z" transform="translate(2.762 23.152)" fill="#6cf"></path><path id="Trazado_393-2" data-name="Trazado 393" d="M91.662,116.434,61.605,134.483V104.426c4.466-13.743,20.914-23.971,30.057-18.049v30.057Z" transform="translate(12.568 17.271)" fill="#6cf"></path><path id="Trazado_394-2" data-name="Trazado 394" d="M170.211,145.26l30.057,18.049V133.253c-4.466-13.743-20.914-23.972-30.057-18.051V145.26Z" transform="translate(34.724 23.152)" fill="#6cf"></path><path id="Trazado_395-2" data-name="Trazado 395" d="M122.146,116.434,152.2,134.483V104.426c-4.466-13.743-20.914-23.971-30.057-18.049v30.057Z" transform="translate(24.919 17.271)" fill="#6cf"></path><path id="Trazado_396-2" data-name="Trazado 396" d="M43.46,277.642,13.4,295.691V265.634c4.466-13.743,20.914-23.971,30.057-18.049v30.057Z" transform="translate(2.734 50.159)" fill="#6cf"></path><path id="Trazado_397-2" data-name="Trazado 397" d="M91.525,248.816,61.468,266.865V236.808c4.466-13.743,20.914-23.971,30.057-18.049v30.057Z" transform="translate(12.54 44.278)" fill="#6cf"></path><path id="Trazado_398-2" data-name="Trazado 398" d="M170.074,277.642l30.057,18.049V265.634c-4.466-13.743-20.914-23.971-30.057-18.049v30.057Z" transform="translate(34.696 50.159)" fill="#6cf"></path><path id="Trazado_399-2" data-name="Trazado 399" d="M122.009,248.816l30.057,18.049V236.808c-4.466-13.743-20.914-23.971-30.057-18.049v30.057Z" transform="translate(24.891 44.278)" fill="#6cf"></path></g></g><path id="Trazado_501" data-name="Trazado 501" d="M0,205.41v50.172l125.483-75.207,125.483,75.207V205.41L125.483,130.2Z" transform="translate(250.966 26.563)" fill="#6cf"></path></g><g id="Grupo_189" data-name="Grupo 189" transform="translate(875.5 3100.544)" style="isolation: isolate"><path id="Trazado_389-3" data-name="Trazado 389" d="M125.483,0,0,75.207V125.38L125.483,50.173,250.966,125.38V75.207Z" transform="translate(0 0)" fill="#6cf"></path><path id="Trazado_390-3" data-name="Trazado 390" d="M0,205.41v50.172l125.483-75.207,125.483,75.207V205.41L125.483,130.2Z" transform="translate(0 26.562)" fill="#6cf"></path><path id="Trazado_391-3" data-name="Trazado 391" d="M0,337.006v50.172l125.483-75.207,125.483,75.207V337.006L125.483,261.8Z" transform="translate(0 53.409)" fill="#6cf"></path><g id="Grupo_149-3" data-name="Grupo 149" transform="translate(0)"><g id="Grupo_148-3" data-name="Grupo 148" clip-path="url(#clip-path)"><path id="Trazado_392-3" data-name="Trazado 392" d="M43.6,145.26,13.54,163.309V133.253C18.006,119.511,34.454,109.281,43.6,115.2V145.26Z" transform="translate(2.762 23.152)" fill="#6cf"></path><path id="Trazado_393-3" data-name="Trazado 393" d="M91.662,116.434,61.605,134.483V104.426c4.466-13.743,20.914-23.971,30.057-18.049v30.057Z" transform="translate(12.568 17.271)" fill="#6cf"></path><path id="Trazado_394-3" data-name="Trazado 394" d="M170.211,145.26l30.057,18.049V133.253c-4.466-13.743-20.914-23.972-30.057-18.051V145.26Z" transform="translate(34.724 23.152)" fill="#6cf"></path><path id="Trazado_395-3" data-name="Trazado 395" d="M122.146,116.434,152.2,134.483V104.426c-4.466-13.743-20.914-23.971-30.057-18.049v30.057Z" transform="translate(24.919 17.271)" fill="#6cf"></path><path id="Trazado_396-3" data-name="Trazado 396" d="M43.46,277.642,13.4,295.691V265.634c4.466-13.743,20.914-23.971,30.057-18.049v30.057Z" transform="translate(2.734 50.159)" fill="#6cf"></path><path id="Trazado_397-3" data-name="Trazado 397" d="M91.525,248.816,61.468,266.865V236.808c4.466-13.743,20.914-23.971,30.057-18.049v30.057Z" transform="translate(12.54 44.278)" fill="#6cf"></path><path id="Trazado_398-3" data-name="Trazado 398" d="M170.074,277.642l30.057,18.049V265.634c-4.466-13.743-20.914-23.971-30.057-18.049v30.057Z" transform="translate(34.696 50.159)" fill="#6cf"></path><path id="Trazado_399-3" data-name="Trazado 399" d="M122.009,248.816l30.057,18.049V236.808c-4.466-13.743-20.914-23.971-30.057-18.049v30.057Z" transform="translate(24.891 44.278)" fill="#6cf"></path></g></g></g></g></svg>