<svg xmlns="http://www.w3.org/2000/svg" xmlns:xlink="http://www.w3.org/1999/xlink" width="638.956" height="559.36" viewBox="0 0 638.956 559.36"><defs><clipPath id="clip-path"><path id="Trazado_2224" data-name="Trazado 2224" d="M198.6,145.924,3.348,254.154V144.323L198.6,36.1Z" transform="translate(-3.348 -36.097)" fill="none"></path></clipPath><linearGradient id="linear-gradient" x1="-0.056" y1="1.415" x2="-0.04" y2="1.415" gradientUnits="objectBoundingBox"><stop offset="0" stop-color="#56bfef"></stop><stop offset="0.3" stop-color="#56bfef"></stop><stop offset="0.7" stop-color="#ffbe4f"></stop><stop offset="1" stop-color="#ffbe4f"></stop></linearGradient><clipPath id="clip-path-2"><rect id="Rect&#xE1;ngulo_132" data-name="Rect&#xE1;ngulo 132" width="348.039" height="427.477" fill="none"></rect></clipPath><clipPath id="clip-path-7"><rect id="Rect&#xE1;ngulo_140" data-name="Rect&#xE1;ngulo 140" width="208.823" height="171.484" fill="none"></rect></clipPath></defs><g id="Grupo_319" data-name="Grupo 319" transform="translate(-299.138 -2204.42)"><g id="Grupo_275" data-name="Grupo 275" transform="translate(299.138 2336.302)"><path id="Trazado_2221" data-name="Trazado 2221" d="M0,190.8l4.933,2.731V69.755L0,67.023Z" transform="translate(0 153.815)" fill="#535453"></path><path id="Trazado_2222" data-name="Trazado 2222" d="M1.5,185.51,137.153,260.7,344.6,145.714,208.947,70.52Z" transform="translate(3.435 161.84)" fill="#cac8c7"></path><path id="Trazado_2223" data-name="Trazado 2223" d="M1.5,147.946,208.95,32.953V156.734L1.5,271.728Z" transform="translate(3.434 75.624)" fill="#6a6968"></path><g id="Grupo_264" data-name="Grupo 264" transform="translate(11.031 118.938)"><g id="Grupo_263" data-name="Grupo 263" clip-path="url(#clip-path)"><rect id="Rect&#xE1;ngulo_130" data-name="Rect&#xE1;ngulo 130" width="195.252" height="218.057" fill="url(#linear-gradient)"></rect></g></g><path id="Trazado_2225" data-name="Trazado 2225" d="M0,147.117l4.933,2.732,207.45-114.99-4.933-2.735Z" transform="translate(0 73.721)" fill="#858282"></path><path id="Trazado_2226" data-name="Trazado 2226" d="M55.219,50.181,29,64.715v5.941L55.219,56.122Z" transform="translate(66.549 115.163)" fill="#6a6968"></path><path id="Trazado_2227" data-name="Trazado 2227" d="M0,109.522l140.586,77.926v-4.929L0,104.59Z" transform="translate(0 240.028)" fill="#a5a2a2"></path><path id="Trazado_2228" data-name="Trazado 2228" d="M42.667,208.332v4.933L250.117,98.271V93.341Z" transform="translate(97.919 214.214)" fill="#a5a2a2"></path><g id="Grupo_266" data-name="Grupo 266"><g id="Grupo_265" data-name="Grupo 265" clip-path="url(#clip-path-2)"><path id="Trazado_2229" data-name="Trazado 2229" d="M34.738,53.54A2.1,2.1,0,0,1,33.7,55.154c-.573.316-1.038.109-1.038-.465A2.085,2.085,0,0,1,33.7,53.079c.573-.32,1.038-.112,1.038.461" transform="translate(74.958 121.468)" fill="#535453"></path><path id="Trazado_2230" data-name="Trazado 2230" d="M35.02,105.342,24.6,111.147l-8.765-4.86,10.412-5.809Z" transform="translate(36.352 230.592)" fill="#535453"></path><path id="Trazado_2231" data-name="Trazado 2231" d="M35.887,107.377,18.977,116.8l-8.761-4.857,16.906-9.43Z" transform="translate(23.445 235.271)" fill="#535453"></path><path id="Trazado_2232" data-name="Trazado 2232" d="M38.782,103.247,28.361,109.06,19.593,104.2l10.419-5.812Z" transform="translate(44.964 225.787)" fill="#535453"></path><path id="Trazado_2233" data-name="Trazado 2233" d="M42.548,101.154,32.119,106.97l-8.771-4.863,10.425-5.819Z" transform="translate(53.582 220.975)" fill="#535453"></path><path id="Trazado_2234" data-name="Trazado 2234" d="M46.315,99.057,35.88,104.876l-8.774-4.867,10.432-5.819Z" transform="translate(62.206 216.163)" fill="#535453"></path><path id="Trazado_2235" data-name="Trazado 2235" d="M50.085,96.961l-10.442,5.822-8.778-4.867L41.3,92.091Z" transform="translate(70.836 211.345)" fill="#535453"></path><path id="Trazado_2236" data-name="Trazado 2236" d="M53.86,94.862l-10.448,5.825L34.628,95.82l10.448-5.829Z" transform="translate(79.469 206.526)" fill="#535453"></path><path id="Trazado_2237" data-name="Trazado 2237" d="M57.636,92.76,47.178,98.592l-8.784-4.873L48.848,87.89Z" transform="translate(88.11 201.704)" fill="#535453"></path><path id="Trazado_2238" data-name="Trazado 2238" d="M61.414,90.66,50.949,96.5l-8.788-4.873,10.461-5.835Z" transform="translate(96.758 196.876)" fill="#535453"></path><path id="Trazado_2239" data-name="Trazado 2239" d="M65.194,88.556,54.723,94.395l-8.791-4.873L56.4,83.683Z" transform="translate(105.411 192.048)" fill="#535453"></path><path id="Trazado_2240" data-name="Trazado 2240" d="M68.977,86.453,58.5,92.295,49.7,87.421l10.475-5.845Z" transform="translate(114.07 187.213)" fill="#535453"></path><path id="Trazado_2241" data-name="Trazado 2241" d="M72.763,84.346,62.278,90.191l-8.8-4.877,10.481-5.845Z" transform="translate(122.735 182.378)" fill="#535453"></path><path id="Trazado_2242" data-name="Trazado 2242" d="M76.551,82.24,66.06,88.091l-8.8-4.88L67.747,77.36Z" transform="translate(131.406 177.537)" fill="#535453"></path><path id="Trazado_2243" data-name="Trazado 2243" d="M36.22,108.092l-10.412,5.8-8.768-4.86,10.412-5.8Z" transform="translate(39.106 236.911)" fill="#535453"></path><path id="Trazado_2244" data-name="Trazado 2244" d="M32.458,110.183l-10.405,5.8-8.761-4.857,10.4-5.8Z" transform="translate(30.502 241.711)" fill="#535453"></path><path id="Trazado_2245" data-name="Trazado 2245" d="M39.982,106,29.56,111.807l-8.768-4.86,10.419-5.809Z" transform="translate(47.717 232.106)" fill="#535453"></path><path id="Trazado_2246" data-name="Trazado 2246" d="M43.747,103.907l-10.429,5.812-8.771-4.863,10.425-5.812Z" transform="translate(56.335 227.3)" fill="#535453"></path><path id="Trazado_2247" data-name="Trazado 2247" d="M47.514,101.814l-10.435,5.816L28.3,102.762l10.432-5.816Z" transform="translate(64.958 222.488)" fill="#535453"></path><path id="Trazado_2248" data-name="Trazado 2248" d="M51.284,99.716l-10.442,5.819-8.778-4.867L42.5,94.85Z" transform="translate(73.587 217.676)" fill="#535453"></path><path id="Trazado_2249" data-name="Trazado 2249" d="M55.057,97.62l-10.448,5.822-8.781-4.867L46.272,92.75Z" transform="translate(82.222 212.857)" fill="#535453"></path><path id="Trazado_2250" data-name="Trazado 2250" d="M58.832,95.52l-10.455,5.825-8.784-4.867L50.048,90.65Z" transform="translate(90.863 208.038)" fill="#535453"></path><path id="Trazado_2251" data-name="Trazado 2251" d="M62.61,93.421,52.145,99.253,43.361,94.38l10.461-5.832Z" transform="translate(99.51 203.213)" fill="#535453"></path><path id="Trazado_2252" data-name="Trazado 2252" d="M66.39,91.318,55.919,97.154l-8.788-4.873L57.6,86.445Z" transform="translate(108.163 198.387)" fill="#535453"></path><path id="Trazado_2253" data-name="Trazado 2253" d="M70.173,89.217,59.695,95.055,50.9,90.182,61.378,84.34Z" transform="translate(116.822 193.556)" fill="#535453"></path><path id="Trazado_2254" data-name="Trazado 2254" d="M73.96,87.111,63.476,92.953l-8.8-4.877,10.485-5.842Z" transform="translate(125.484 188.724)" fill="#535453"></path><path id="Trazado_2255" data-name="Trazado 2255" d="M77.748,85.006,67.257,90.855l-8.8-4.88,10.491-5.849Z" transform="translate(134.155 183.886)" fill="#535453"></path><path id="Trazado_2256" data-name="Trazado 2256" d="M88,81.843,70.939,91.352l-8.8-4.88L79.2,76.963Z" transform="translate(142.603 176.626)" fill="#535453"></path><path id="Trazado_2257" data-name="Trazado 2257" d="M72.236,91.513l10.5-5.849-8.8-4.88-10.5,5.849Z" transform="translate(145.58 185.396)" fill="#535453"></path><path id="Trazado_2258" data-name="Trazado 2258" d="M76.022,89.407l10.5-5.852-8.8-4.88-10.5,5.852Z" transform="translate(154.261 180.557)" fill="#535453"></path><path id="Trazado_2259" data-name="Trazado 2259" d="M68.452,93.614l10.491-5.842-8.8-4.88L59.655,88.737Z" transform="translate(136.904 190.233)" fill="#535453"></path><path id="Trazado_2260" data-name="Trazado 2260" d="M64.671,95.714l10.485-5.839L66.358,85,55.877,90.837Z" transform="translate(128.234 195.068)" fill="#535453"></path><path id="Trazado_2261" data-name="Trazado 2261" d="M60.893,97.815,71.371,91.98,62.576,87.1,52.1,92.942Z" transform="translate(119.571 199.897)" fill="#535453"></path><path id="Trazado_2262" data-name="Trazado 2262" d="M57.117,99.912,67.588,94.08,58.8,89.207,48.329,95.039Z" transform="translate(110.913 204.725)" fill="#535453"></path><path id="Trazado_2263" data-name="Trazado 2263" d="M53.344,102.008l10.461-5.829-8.788-4.87L44.559,97.138Z" transform="translate(102.261 209.55)" fill="#535453"></path><path id="Trazado_2264" data-name="Trazado 2264" d="M49.573,104.1,60.028,98.28l-8.784-4.87L40.792,99.232Z" transform="translate(93.615 214.371)" fill="#535453"></path><path id="Trazado_2265" data-name="Trazado 2265" d="M45.8,106.2l10.448-5.819-8.781-4.87-10.445,5.822Z" transform="translate(84.975 219.187)" fill="#535453"></path><path id="Trazado_2266" data-name="Trazado 2266" d="M42.039,108.289l10.442-5.816L43.7,97.606l-10.438,5.816Z" transform="translate(76.341 224.002)" fill="#535453"></path><path id="Trazado_2267" data-name="Trazado 2267" d="M38.276,110.379l10.435-5.812L39.937,99.7,29.5,105.515Z" transform="translate(67.712 228.813)" fill="#535453"></path><path id="Trazado_2268" data-name="Trazado 2268" d="M34.518,112.47l10.429-5.809L36.172,101.8l-10.425,5.809Z" transform="translate(59.087 233.619)" fill="#535453"></path><path id="Trazado_2269" data-name="Trazado 2269" d="M30.76,114.557l10.419-5.8-8.768-4.863L21.992,109.7Z" transform="translate(50.471 238.424)" fill="#535453"></path><path id="Trazado_2270" data-name="Trazado 2270" d="M76.22,96.418,96.247,85.271l-8.807-4.883-20.02,11.15Z" transform="translate(154.724 184.487)" fill="#535453"></path><path id="Trazado_2271" data-name="Trazado 2271" d="M28.2,123.05,48.057,112l-8.768-4.86L19.44,118.19Z" transform="translate(44.614 245.878)" fill="#535453"></path><path id="Trazado_2272" data-name="Trazado 2272" d="M72.435,94.827l10.5-5.842-8.8-4.88L63.637,89.95Z" transform="translate(146.044 193.017)" fill="#535453"></path><path id="Trazado_2273" data-name="Trazado 2273" d="M68.652,96.927,79.14,91.088l-8.8-4.877L59.858,92.05Z" transform="translate(137.371 197.851)" fill="#535453"></path><path id="Trazado_2274" data-name="Trazado 2274" d="M64.872,99.025,75.353,93.19l-8.794-4.873L56.081,94.152Z" transform="translate(128.703 202.682)" fill="#535453"></path><path id="Trazado_2275" data-name="Trazado 2275" d="M61.094,101.124l10.475-5.832-8.791-4.873L52.307,96.251Z" transform="translate(120.042 207.507)" fill="#535453"></path><path id="Trazado_2276" data-name="Trazado 2276" d="M57.32,103.22l10.468-5.825L59,92.521,48.535,98.35Z" transform="translate(111.386 212.331)" fill="#535453"></path><path id="Trazado_2277" data-name="Trazado 2277" d="M53.549,105.314l10.461-5.822-8.788-4.87-10.458,5.822Z" transform="translate(102.733 217.152)" fill="#535453"></path><path id="Trazado_2278" data-name="Trazado 2278" d="M49.78,107.409l10.455-5.819L51.45,96.72,41,102.542Z" transform="translate(94.09 221.967)" fill="#535453"></path><path id="Trazado_2279" data-name="Trazado 2279" d="M46.012,109.5l10.445-5.816-8.778-4.867-10.445,5.816Z" transform="translate(85.451 226.782)" fill="#535453"></path><path id="Trazado_2280" data-name="Trazado 2280" d="M42.248,111.59l10.438-5.812-8.774-4.863-10.438,5.812Z" transform="translate(76.819 231.593)" fill="#535453"></path><path id="Trazado_2281" data-name="Trazado 2281" d="M38.485,113.68l10.432-5.806-8.774-4.867-10.429,5.809Z" transform="translate(68.193 236.398)" fill="#535453"></path><path id="Trazado_2282" data-name="Trazado 2282" d="M34.726,115.767l10.425-5.8L36.38,105.1l-10.422,5.806Z" transform="translate(59.572 241.203)" fill="#535453"></path><path id="Trazado_2283" data-name="Trazado 2283" d="M77.516,101.414l25.941-14.432L94.65,82.1,68.715,96.534Z" transform="translate(157.698 188.42)" fill="#535453"></path><path id="Trazado_2284" data-name="Trazado 2284" d="M73.731,97.533l10.494-5.839-8.8-4.88L64.933,92.656Z" transform="translate(149.019 199.235)" fill="#535453"></path><path id="Trazado_2285" data-name="Trazado 2285" d="M69.948,99.631,80.436,93.8l-8.794-4.877L61.154,94.755Z" transform="translate(140.345 204.066)" fill="#535453"></path><path id="Trazado_2286" data-name="Trazado 2286" d="M66.168,101.729,76.649,95.9l-8.794-4.873L57.377,96.855Z" transform="translate(131.678 208.894)" fill="#535453"></path><path id="Trazado_2287" data-name="Trazado 2287" d="M62.391,103.827,72.865,98l-8.791-4.873L53.6,98.953Z" transform="translate(123.016 213.716)" fill="#535453"></path><path id="Trazado_2288" data-name="Trazado 2288" d="M58.616,105.921,69.084,100.1,60.3,95.225l-10.465,5.825Z" transform="translate(114.361 218.537)" fill="#535453"></path><path id="Trazado_2289" data-name="Trazado 2289" d="M54.844,108.014l10.461-5.819-8.784-4.87-10.458,5.819Z" transform="translate(105.712 223.355)" fill="#535453"></path><path id="Trazado_2290" data-name="Trazado 2290" d="M51.074,110.1l10.452-5.816-8.781-4.867L42.3,105.238Z" transform="translate(97.068 228.17)" fill="#535453"></path><path id="Trazado_2291" data-name="Trazado 2291" d="M47.307,112.2l10.445-5.812-8.778-4.867-10.442,5.812Z" transform="translate(88.43 232.979)" fill="#535453"></path><path id="Trazado_2292" data-name="Trazado 2292" d="M43.542,114.286l10.438-5.809-8.774-4.863-10.435,5.809Z" transform="translate(79.798 237.788)" fill="#535453"></path><path id="Trazado_2293" data-name="Trazado 2293" d="M39.78,116.373l10.432-5.8-8.771-4.863-10.429,5.8Z" transform="translate(71.172 242.593)" fill="#535453"></path><path id="Trazado_2294" data-name="Trazado 2294" d="M31.276,127.153l26.05-14.491L48.558,107.8,22.515,122.293Z" transform="translate(51.67 247.393)" fill="#535453"></path><path id="Trazado_2295" data-name="Trazado 2295" d="M25.127,120.212l16.92-9.424-8.768-4.86-16.913,9.424Z" transform="translate(37.558 243.099)" fill="#535453"></path><path id="Trazado_2296" data-name="Trazado 2296" d="M80.342,80.13l-10.5,5.855-8.8-4.88L71.534,75.25Z" transform="translate(140.083 172.695)" fill="#535453"></path><path id="Trazado_2297" data-name="Trazado 2297" d="M36.859,112.942l13.7-7.621,8.774,4.867-13.7,7.618Z" transform="translate(84.59 241.706)" fill="#535453"></path><path id="Trazado_2298" data-name="Trazado 2298" d="M41.611,128.3l60.146-33.46,8.791,4.873L50.386,133.162Z" transform="translate(95.496 217.642)" fill="#535453"></path><path id="Trazado_2299" data-name="Trazado 2299" d="M33.1,113.766l10.429-5.8,8.771,4.863-10.432,5.8Z" transform="translate(75.963 247.772)" fill="#535453"></path><path id="Trazado_2300" data-name="Trazado 2300" d="M29.344,115.854l10.422-5.8,8.768,4.863-10.425,5.8Z" transform="translate(67.342 252.57)" fill="#535453"></path><path id="Trazado_2301" data-name="Trazado 2301" d="M74.222,92.18l-13.76,7.654,8.791,4.873,13.763-7.651Z" transform="translate(138.757 211.549)" fill="#535453"></path><path id="Trazado_2302" data-name="Trazado 2302" d="M75.726,90.077,65.235,95.912l8.794,4.877,10.494-5.835Z" transform="translate(149.71 206.722)" fill="#535453"></path><path id="Trazado_2303" data-name="Trazado 2303" d="M79.514,87.973l-10.5,5.839,8.8,4.88,10.5-5.839Z" transform="translate(158.388 201.893)" fill="#535453"></path><path id="Trazado_2304" data-name="Trazado 2304" d="M83.3,85.866,72.8,91.712l8.8,4.877,10.508-5.842Z" transform="translate(167.072 197.059)" fill="#535453"></path><path id="Trazado_2305" data-name="Trazado 2305" d="M87,83.814,76.486,89.663l8.8,4.88L95.8,88.7Z" transform="translate(175.532 192.35)" fill="#535453"></path><path id="Trazado_2306" data-name="Trazado 2306" d="M25.589,117.94,36,112.144,44.769,117l-10.419,5.8Z" transform="translate(58.726 257.365)" fill="#535453"></path><line id="L&#xED;nea_27" data-name="L&#xED;nea 27" y1="5.842" x2="10.508" transform="translate(244.271 285.367)" fill="#535453"></line><rect id="Rect&#xE1;ngulo_131" data-name="Rect&#xE1;ngulo 131" width="160.668" height="32.103" transform="translate(155.765 193.091)" fill="#f58a72"></rect></g></g><text id="GUIDELINES" transform="translate(175.385 212.959)" fill="#fff" font-size="17" font-family="GillSans-SemiBold, Gill Sans" font-weight="600"><tspan x="0" y="0" letter-spacing="0.035em">G</tspan><tspan y="0" letter-spacing="0.039em">U</tspan><tspan y="0" letter-spacing="0.038em">I</tspan><tspan y="0" letter-spacing="0.034em">D</tspan><tspan y="0" letter-spacing="0.041em">E</tspan><tspan y="0" letter-spacing="0.028em">L</tspan><tspan y="0" letter-spacing="0.038em">I</tspan><tspan y="0" letter-spacing="0.04em">NE</tspan><tspan y="0">S</tspan></text><g id="Grupo_268" data-name="Grupo 268"><g id="Grupo_267" data-name="Grupo 267" clip-path="url(#clip-path-2)"><rect id="Rect&#xE1;ngulo_133" data-name="Rect&#xE1;ngulo 133" width="160.668" height="32.103" transform="translate(155.765 142.935)" fill="#56bfef"></rect></g></g><text id="TEMPLATES" transform="translate(178.59 162.808)" fill="#fff" font-size="17" font-family="GillSans-SemiBold, Gill Sans" font-weight="600"><tspan x="0" y="0" letter-spacing="0.025em">T</tspan><tspan y="0" letter-spacing="0.041em">E</tspan><tspan y="0" letter-spacing="0.04em">M</tspan><tspan y="0" letter-spacing="0.023em">P</tspan><tspan y="0" letter-spacing="0.061em">L</tspan><tspan y="0" letter-spacing="-0.051em">A</tspan><tspan y="0" letter-spacing="0.025em">T</tspan><tspan y="0" letter-spacing="0.04em">E</tspan><tspan y="0">S</tspan></text><g id="Grupo_270" data-name="Grupo 270"><g id="Grupo_269" data-name="Grupo 269" clip-path="url(#clip-path-2)"><rect id="Rect&#xE1;ngulo_135" data-name="Rect&#xE1;ngulo 135" width="156.836" height="68.327" transform="translate(155.762 -0.003)" fill="#075372"></rect></g></g><text id="ESCALATE_" data-name="ESCALATE " transform="translate(183.105 23.152)" fill="#fff" font-size="17" font-family="GillSans-SemiBold, Gill Sans" font-weight="600"><tspan x="0" y="0" letter-spacing="0.04em">E</tspan><tspan y="0" letter-spacing="0.028em">S</tspan><tspan y="0" letter-spacing="0.038em">C</tspan><tspan y="0" letter-spacing="0.034em">A</tspan><tspan y="0" letter-spacing="0.061em">L</tspan><tspan y="0" letter-spacing="-0.052em">A</tspan><tspan y="0" letter-spacing="0.025em">T</tspan><tspan y="0">E </tspan></text><text id="PLATFORM" transform="translate(180.205 52.799)" fill="#fff" font-size="17" font-family="GillSans-SemiBold, Gill Sans" font-weight="600"><tspan x="0" y="0" letter-spacing="0.023em">P</tspan><tspan y="0" letter-spacing="0.061em">L</tspan><tspan y="0" letter-spacing="-0.052em">A</tspan><tspan y="0" letter-spacing="0.025em">T</tspan><tspan y="0" letter-spacing="0.029em">F</tspan><tspan y="0" letter-spacing="0.034em">O</tspan><tspan y="0" letter-spacing="0.031em">R</tspan><tspan y="0">M</tspan></text><g id="Grupo_272" data-name="Grupo 272"><g id="Grupo_271" data-name="Grupo 271" clip-path="url(#clip-path-2)"><rect id="Rect&#xE1;ngulo_137" data-name="Rect&#xE1;ngulo 137" width="160.668" height="32.103" transform="translate(155.765 92.779)" fill="#5ab268"></rect></g></g><text id="COURSES" transform="translate(189.151 112.643)" fill="#fff" font-size="17" font-family="GillSans-SemiBold, Gill Sans" font-weight="600"><tspan x="0" y="0" letter-spacing="0.021em">C</tspan><tspan y="0" letter-spacing="0.031em">O</tspan><tspan y="0" letter-spacing="0.04em">U</tspan><tspan y="0" letter-spacing="0.032em">R</tspan><tspan y="0" letter-spacing="0.042em">S</tspan><tspan y="0" letter-spacing="0.04em">E</tspan><tspan y="0">S</tspan></text><g id="Grupo_274" data-name="Grupo 274"><g id="Grupo_273" data-name="Grupo 273" clip-path="url(#clip-path-2)"><path id="Trazado_2307" data-name="Trazado 2307" d="M48.488,131.267l41.605,23.065,63.629-35.272L112.117,96Z" transform="translate(111.278 220.31)" fill="#c0bdbd"></path></g></g></g><g id="Grupo_280" data-name="Grupo 280" transform="translate(675.177 2409.818)"><g id="Grupo_277" data-name="Grupo 277" transform="translate(0 0)"><g id="Grupo_276" data-name="Grupo 276" clip-path="url(#clip-path-7)"><path id="Trazado_2308" data-name="Trazado 2308" d="M171.484,85.742A85.742,85.742,0,1,1,85.742,0a85.742,85.742,0,0,1,85.742,85.742" transform="translate(0 0.001)" fill="#56bfef"></path><path id="Trazado_2309" data-name="Trazado 2309" d="M164.584,117.32,26.425,76.3,56.586,21.89Z" transform="translate(175.884 71.326) rotate(115)" fill="#56bfef"></path><path id="Trazado_2310" data-name="Trazado 2310" d="M92.823,114.174H18.09V8.537H76.816L92.823,26.731Z" transform="translate(30.285 14.292)" fill="#e9eaed"></path></g></g><text id="EED_Recast_" data-name="EED Recast " transform="translate(54.751 63.466)" fill="#535453" font-size="11" font-family="GillSans-SemiBold, Gill Sans" font-weight="600"><tspan x="0" y="0" letter-spacing="0.041em">EE</tspan><tspan y="0">D </tspan><tspan y="0" letter-spacing="0.016em">R</tspan><tspan y="0" letter-spacing="0.029em">e</tspan><tspan y="0" letter-spacing="0.034em">c</tspan><tspan y="0" letter-spacing="0.036em">a</tspan><tspan y="0" letter-spacing="0.031em">s</tspan><tspan y="0">t </tspan></text><text id="Art._25" data-name="Art. 25" transform="translate(66.643 79.511)" fill="#535453" font-size="11" font-family="GillSans-SemiBold, Gill Sans" font-weight="600"><tspan x="0" y="0" letter-spacing="0.034em">A</tspan><tspan y="0" letter-spacing="0.054em">r</tspan><tspan y="0" letter-spacing="0.055em">t</tspan><tspan y="0">. </tspan><tspan y="0" letter-spacing="0.028em">2</tspan><tspan y="0">5</tspan></text><text id="H_C_plans" data-name="H&amp;C plans" transform="translate(57.266 95.555)" fill="#535453" font-size="11" font-family="GillSans-SemiBold, Gill Sans" font-weight="600"><tspan x="0" y="0" letter-spacing="0.034em">H</tspan><tspan y="0" letter-spacing="0.037em">&amp;</tspan><tspan y="0">C </tspan><tspan y="0" letter-spacing="0.025em">p</tspan><tspan y="0" letter-spacing="0.029em">l</tspan><tspan y="0" letter-spacing="0.028em">a</tspan><tspan y="0" letter-spacing="0.027em">n</tspan><tspan y="0">s</tspan></text><g id="Grupo_279" data-name="Grupo 279" transform="translate(0 0)"><g id="Grupo_278" data-name="Grupo 278" clip-path="url(#clip-path-7)"><path id="Trazado_2311" data-name="Trazado 2311" d="M40.052,8.537,56.059,26.731H40.052Z" transform="translate(67.05 14.292)" fill="#fff"></path><path id="Trazado_2312" data-name="Trazado 2312" d="M62.42,60.3A18.669,18.669,0,1,1,43.753,41.628,18.668,18.668,0,0,1,62.42,60.3" transform="translate(41.99 69.69)" fill="#5ab268"></path><path id="Trazado_2313" data-name="Trazado 2313" d="M62.42,60.3A18.669,18.669,0,1,1,43.753,41.628,18.668,18.668,0,0,1,62.42,60.3Z" transform="translate(41.99 69.69)" fill="none" stroke="#fff" stroke-miterlimit="10" stroke-width="0.781"></path><path id="Trazado_2314" data-name="Trazado 2314" d="M36.04,58.512,47.506,45.4l1.744,2.024L36.04,62.563l-7.929-9.095,1.746-2Z" transform="translate(47.061 76.005)" fill="#fff"></path></g></g></g><g id="Grupo_281" data-name="Grupo 281" transform="translate(863.906 2204.42)"><path id="Trazado_2218" data-name="Trazado 2218" d="M30.489,0,12.728,38.191,30.489,58.434l-12.728,6.43L0,44.627,17.761,6.432Z" transform="translate(43.7 0)" fill="#56bfef"></path><path id="Trazado_2219" data-name="Trazado 2219" d="M28.479,46.922,46.24,67.162,33.512,73.595,15.751,53.355,33.512,15.163,46.24,8.731Z" transform="translate(-15.751 16.985)" fill="#56bfef"></path><path id="Trazado_2220" data-name="Trazado 2220" d="M25.637,10.8,38.365,4.365,20.6,42.557,38.365,62.8,25.637,69.23,7.875,48.99Z" transform="translate(13.974 8.493)" fill="#56bfef"></path></g><g id="Grupo_262" data-name="Grupo 262" transform="translate(861.906 2673.201)"><path id="Trazado_2218-2" data-name="Trazado 2218" d="M0,0,16.193,38.191,0,58.434l11.6,6.43L27.8,44.627,11.6,6.432Z" transform="translate(0 0)" fill="#56bfef"></path><path id="Trazado_2219-2" data-name="Trazado 2219" d="M31.944,46.922,15.751,67.162l11.6,6.433,16.193-20.24L27.355,15.163l-11.6-6.433Z" transform="translate(30.64 16.985)" fill="#56bfef"></path><path id="Trazado_2220-2" data-name="Trazado 2220" d="M19.48,10.8,7.876,4.365,24.069,42.557,7.876,62.8l11.6,6.433L35.673,48.99Z" transform="translate(15.32 8.493)" fill="#56bfef"></path></g></g></svg>