<svg xmlns="http://www.w3.org/2000/svg" width="179.744" height="245.456" viewBox="0 0 179.744 245.456"><path id="de-2" d="M266.929,195.271c-.053-.02-.09.02-.158.08a1.924,1.924,0,0,0-.4.559c-.56,1.129-1.243,1.944-2.139,7.024-.056,1.185.5,2.011.555,1.277a17.615,17.615,0,0,1,.515-3.153c.224-.564.493-.452,1.109,0s.685-.044,1.862-.439,1.4-.878.951-.878a8.369,8.369,0,0,1-2.773.08c-1.064-.282-.247-1.8-.079-2.873.137-.871,1-1.092,1.109-1.2-.252-.063-.394-.419-.555-.479Zm4.041,4.55a13.733,13.733,0,0,0,.951,5.268c.269.543,2.073,2.673,3.645,4.55-.616,1.75-.269,1.807-1.109,2.315s-.688,2.048.713,1.6a3.153,3.153,0,0,0,2.139-1.756,5.411,5.411,0,0,1,.555.8c-.77,3.268-4.472,2-7.131,3.113.181.223,2.038.468,1.188,1.437-.238.479-2.139-.319-1.9.16.188,1.572.251,2.739,4.278,1.836.65.674.562.847.872.639a8.591,8.591,0,0,0,1.347-1.517c.139.027.319-.008.4.08-1.725,2.03-2.9,2.281-2.615,5.587a1.228,1.228,0,0,0,1.03.16c.728-.169.968.411,1.585,1.6s.328,1.639-.792,1.357c-1.013-.255-1.148-.347-1.664,0a13.873,13.873,0,0,0,1.03,2.794c-.476,3.354,4.912,2,5.625,2,4.322.465,3.2,4.452,5.942,5.507.755,1.776-.4,3.592,6.259,5.268-6.555-1-6.1-2.633-7.289-4.55-2.346-1.964-2.059-4.469-3.724-5.188-2.14-.958-4.673,1.038-7.051.559a5.536,5.536,0,0,1-2.852-.479c-.713-.24-.822-1.981-1.188-1.676-5.022,4.177-3.449,7.812-2.377,11.095-3.266-.834-4.577-4.261-5.7-1.437-1.489,3.731,2.143.366.792,4.869-.245.819-1.347,1.418-2.535-.639-.353-.008-1.53-.289-1.426-1.117s2.031-1.349,1.109-2.953c-1.2-2.082-1.9-2.6-1.743-3.831a2.5,2.5,0,0,0-1.188-.479c-4.926-.154-5.787.4-8.161,1.117-1.245-.339-4.357-.639-5.546.08a9.078,9.078,0,0,0-2.694,2.794c.809.836,1.292,1.155.871,1.2-.56.056-.881.107-.713.559.142.38-.2.127-.951-.319-1.182,2.161-1.941,4.58-.951,5.827a24.784,24.784,0,0,0,3.882.559c.168.463,1.253,1.064.475,2.554.476,4.073-3.565,11.732-4.041,13.409-.713,1.917.952,5.747-.951,5.747-1.665,0-3.089-.718-4.754-.718-.476,0-1.188,0-1.188.479-.238.719.951,1.436.713,2.155,0,.479-1.188-.24-1.426.479-2.14,3.594,6.655,2.153,6.893,5.507.951,5.99-3.563,6.943-7.368,9.578-2.14,1.437,3.09,1.675,2.377,3.352s-7.13,3.831-8.795,3.592c-1.665,0-2.614-1.676-4.041-2.155-.476-.24.476,1.2,0,1.437-1.427.479-2.852-.24-4.041.479-.476.24,0,.957,0,1.437-.238.479-.713,1.2-.475,1.676,1.427,2.635,6.656,6.462,4.516,11.733-.713,1.677-2.377,2.873-3.09,4.55-.951,1.917,2.139.478,1.9,1.676l-4.516,4.071c-.476,0,.175-1.071-.539-.831-2.14,3.527,3.685,1.151,2.915,6.1-.238.958-1.9.957-2.139,1.916-.238.719,3.09,5.747,3.328,5.986.476.479,1.9-.478,1.9.239.238.958-1.664,1.915-1.426,2.873.476,1.437,2.614,1.2,3.328,2.395,3.329,5.51-7.607,5.024-5.467,13.888,1.189,5.031,6.893,5.587,7.368,6.306,3.329,4.073-6.181,5.984-3.565,10.775.476.719,1.9,0,2.615.718,1.9,1.2,3.089,6.7,5.467,9.1,2.854,3.115-1.905-6.709,5.229-.239.476.479-.477,1.436-.238,2.155.476.719,8.081-2.4,9.27-1.437.713.719.237,2.155.951,2.873.951.719,15.213,2.394,14.261,4.071-2.616,4.552-7.367,7.421-9.27,11.254-.713,1.677-.951,6.943-1.188,8.381l-3.328,5.507a6.514,6.514,0,0,0-.713,3.592c0,.719.951.718.951,1.2-.238,3.354-2.615,6.463-2.377,9.818,0,8.385.95,1.2,3.09,2.873.238.24-1.426.479-1.188.958.713,1.438,11.646-1.2,12.36-1.2,4.756-.24.472,4.312,6.418,1.2.238-.24-.476-1.437,0-1.676.714-.479,3.328-.718,2.377-.958-1.427-.24-2.852.24-4.278,0-.714-.24,3.326-6.707,6.893-3.113.476.479-.713,1.436-.475,2.155a1.462,1.462,0,0,0,1.664.479c.476-.24-.238-1.916,0-1.437.951.479.95,2.155,1.9,2.634,0,0,7.844-.479,8.081-.479,2.616.719,4.277,3.352,6.893,4.31,3.805,1.2,3.565-3.113,4.754-2.155.476.479,0,1.676.475,2.155.951.24,1.9-.958,2.615-.479.951.479,1.426,1.676,2.377,2.395,1.189.958-.476,1.915,0,2.634a1.689,1.689,0,0,0,1.426.718c.476,0,1.188-.958,1.426-.718.714.958-1.9,2.394-.951,3.352,1.665,1.677,6.18-3.831,6.18-4.789.476-1.677-.952-5.747.475-4.789,0,.24-.475.479-.475.479,1.9,2.156,8.556-1.678,9.508,1.437.238.479-1.189.239-.951.718s1.426.479,1.664.958c.476.479,0,1.676.475,2.155.951.479,9.032-1.676,9.27-1.916.476-.479-.475-1.676.238-1.916.951-.719,2.139.478,3.09-.239.951-.479.475-2.155,1.426-2.634,3.092-1.2,8.555.24,11.884-.718.713-.24-1.9-4.071.951-4.31.476,0-.476,1.437,0,1.676,1.189.479,2.614-.72,4.041-.239.713.24.475,1.915,1.426,2.155,1.9.24,3.564-1.437,5.467-1.437,3.567.24-2.381,4.07,5.229,6.226.476,0,.951-.718.951-1.2,2.14-7.906-.474-4.309-3.09-6.7-1.189-.958,2.139-3.831,1.9-4.071,0-.24-5.7-8.141-5.7-8.141.238-3.833,10.3-6.225,12.439-7.9,2.378-1.917.95-4.548,1.426-6.944a1.305,1.305,0,0,1,1.189-.718c4.994,1.2,6.417,2.638,6.655-3.831.238-6.229-10.06-9.816-13.865-12.451-1.665-1.438-1.9-4.07-3.565-5.747-1.794-1.807-4.027.028-5.467-1.117-.418-.332.579-.839.4-1.2a2.586,2.586,0,0,0-2.535-1.6c-2.473-6.406-2.371-8.04-5.7-10.217.476-2.635,3.566-1.435,2.852-4.789-.238-1.437-1.9-1.756-2.377-2a17.285,17.285,0,0,1-4.437-4.55c0-.54-.033-1.072,0-1.437.084-.931-.828-1.326-1.426-1.756a1.7,1.7,0,0,1-.792-.958c.122-.092.373-.206.555-.319.64-.4-.826-1.077-.079-1.6.955-.664,1.68.82,2.377,1.756.951.719.951,4.071,1.426,3.113,1.9-3.833,2.849-8.38,8.794-9.339.714,0,3.327,2.156,4.278.958.714-.719,0-2.155.713-2.634.714-.719,2.139.478,2.852-.239,1.427-.958,1.742-3.831,3.882-4.31.713-.24,1.188,1.437,1.664.958,1.189-.958.712-2.873,1.9-3.831,1.427-1.2,4.04.24,5.942-.718.476-.24,0-1.437.475-1.676,2.854-1.677,6.891-1.914,9.745-4.31.951-.719-3.328-1.676-2.852-2.873.4-1.135.8-2.257,1.347-2.075.747.249,1.089,1.164,1.613,1.133s.6-.377.872-.395c.176-.013.312.247.446.379a4.592,4.592,0,0,1,.555.08c1.933.452,1.958.636,1.776,1.5s-.117,1.235.126,1.295.5-.237.792-.4c.882-.487.6.471.079,1.437.046.054.112.108.158.16-.233,1.138.7,1.379,1.585,1.517a1.806,1.806,0,0,0,1.347.4c1.427-.24,1.428-3.584,3.169-9.339.679-2.243,1.715-3.654.158-6.864-.9-1.855-.234-3.455-2.377-4.869-.951-.958-3.089-.478-4.041-1.916-.713-.958,2.184-1.6.475-3.592a9.288,9.288,0,0,1-1.981-3.432c-.206-1.146-1.585-1-.872-2.075,3.291-3.413,1.493-3.588,2.377-7.184-.238-.479-1.188-.239-1.426-.958-.238-1.2.714-2.873,0-4.071-.476-1.438-2.195-1.068-2.852-3.113-1.07-1.318-.129-2.736.317-3.672s.788-1.39.4-3.751c-.294-1.772-3.076-3.188-5.229-5.029-2-1.707-4.278-1.2-4.754-2.634-.416-1.138.871-.625.555-3.273-.148-1.236,1.6-2.132,2.456-3.113.908-1.037,1.285-3.074,1.664-4.39a6.869,6.869,0,0,0,.555-3.352c-.476-2.4-3.327-9.257-3.8-13.09-.469.035.406-1.519-.317-1.756s-2.147,1.02-3.645.16a18.2,18.2,0,0,1-3.565-2.554,5.415,5.415,0,0,1,.634-.16c.616,0,.354-1,.634-.718s-.424.582.079.639,1.024-.7,1.585-1.038.735.113,1.743,0a4.032,4.032,0,0,1,1.585.08l-.158-1.117-.238-.4.555-.4s.1-.017-.792-.639a22.532,22.532,0,0,1-2.456-2.315c-1.625-1.524-1.9-1.2-1.505-.639a5.53,5.53,0,0,1,1.189,1.916c.168.79-.093,1.376-.317,1.038a1.945,1.945,0,0,0-.713-.559.776.776,0,0,0-.634-.559c-.5-.056-1.082.506-.634.958a2.69,2.69,0,0,1,.238,2.474c-.132.287-.761.511-1.426.639-.521-1.51,3.24-1.331-1.505-4.55-1.685-1.143,3.959-1.593,2.377-2.155-2.017-3.484-3.226-3.233-2.931-1.836-1.9-.479-4.751.392-5.071,1.916-1.02-1.962-2.852-3.112-4.278-4.31-.714-.958-2.377-.478-3.09-1.437-.951-1.437,0-4.789-1.664-4.789a.558.558,0,0,1-.317-.08c-.029.04-.049.13-.079.16-.616.593-.488.243-1.188.638s-.573.759-.713,1.437-1.081.611-1.109.16-.214-.695-.634-.639a1.445,1.445,0,0,1-1.426-.479c-.336-.508-.055-.423-.475,0a16.709,16.709,0,0,1-1.505,1.277c-.672.536-.643-.855-.951-.319s-.017.892-.634,1.117-.443.586-.555,1.038-.689.093-1.109.8c-.028.339.279.681.951.878s-.348.174-1.188-.08-.167-.445-.475-1.038.083-.5.475-1.038.289-.2.317-.878-.029-.619.475-.958,1.187-.061,2.139-.4.1-.107.634-.559.628-.211,1.188-.239.391-.319.951-.319a4.958,4.958,0,0,0,1.585,0,10.043,10.043,0,0,1,1.981-.239c.177-.013.313-.272.475-.639a1.665,1.665,0,0,0-.4,0c-3.022-.112-7.21-1.277-7.685-.8-1.427,1.677-1.663,4.309-3.09,5.986a24.782,24.782,0,0,0-3.486,3.193,25.58,25.58,0,0,1-4.912,1.676c-2.366.294-2.929-.05-3.724.16-2.14,1.2-2.852,7.183-4.041,7.9-2.6-3.4-1.885,1.389-4.991-3.592-1.9,0-3.247,2.075-5.15,1.836-.44-.417.631-1.527-1.822-1.437-.9.033-.645-2.222.792-2.474,1.854-.325,3.042-2.246,4.675-3.672-.1-3.473-.55-4.779.4-6.146-.982.082-1.175.639-2.3.239-1.143-.406-3.777,2.333-4.12,2.474-1.749-.537-6.734-4.31-8.161-4.071-1.665.24-3.328,3.911-3.328,3.911s1.189-3.112.951-4.55c-.238-2.156-4.431.4-6.18.08-1.287-1.706,1.718.516,3.09-2.714a4.337,4.337,0,0,0,0-3.831c-.238-.479-1.426.479-1.664,0-.476-.24.475-.8.951-1.038,0,0,.475.24.475,0a2.607,2.607,0,0,0-.951-2.155c-.594-.359-.83-.557-1.981,0a3.017,3.017,0,0,0-2.694-1.6,3.883,3.883,0,0,1-2.218-1.517c-.951.24-1.426,1.436-2.377,2.155-.476.24-.477,0-.238-.718-3.092-.479-6.178-2.155-9.27-2.634a37.378,37.378,0,0,1-5.229,0Zm-1.585,4.23c-1.4.057-3.227.853-2.218,1.756,1.569.677,2.157,1.006,2.773.16S270.785,203.994,269.385,204.051Zm88.183,1.2c-1.12.169-2.157,0-2.773.958s-.7,1.635-.079.958,1.521-.679.792.958-.253,1.146.475.639.783-.619.951-.958.232-.029.792.479.866.9,1.426.958.555-.114.555.958.141,1.051-.475,1.277-.839.2-.951-.479.234-.563-.158-.958.085-.419-.475-.08-.7.41-.475-.718-.12-1.03-.792-.239-.181.53-.238,1.038.029.076-.475-.319-1.42.056-1.981,0-.079.211-.079.718.4.4.792.4.643-.02.475.319-.211.286.238.4.719-.3.158.319a19.425,19.425,0,0,1-1.585,1.277c-.392.4.13.479.634.479s.354.074.634.639.77.958-.238.958-1.5-.391-1.664.4a1.594,1.594,0,0,0,.634,1.6c1.961,1.693,2.269,1.742,2.773,1.517s.172-.292.4.16.833,1.057,1.505.718-.85-1.275.158-2.235,2.524-2.038,3.645-1.756,1.567.929.951,1.437.908,1.322,1.188.08.668-1.186-.4-2.315-2.078-.386-2.694-2.474,1.417-.941,1.585-2.634-.855-1.719-2.535-1.437-2.717.227-2.773-.958.051-.779.555-1.117.645-1.127-.475-.958Zm-85.489,5.108a4.857,4.857,0,0,0-1.743.639c-.5.339-.458.351.158,1.2s1.08.148,1.585-1.038c.252-.593.287-.784,0-.8Zm43.576.8c-1.372.314-1.622,2.368-1.426,2.714.224.4.41.23.634.4,1.064-.4,1.086-.493,1.03.239s.4,1.659,1.188,1.038a1.7,1.7,0,0,1,1.9-.4c.672.226,1.4.589.555-.878s-1.288-2.831-3.248-3.113a1.685,1.685,0,0,0-.634,0Zm38.347.239c-.412.045-.815.525-1.109,1.117-.392.79.51.245,1.743-.319.112-.226.322-.243-.238-.639a.6.6,0,0,0-.4-.16Zm-30.186,15.644c-.053-.028-.186.015-.4.08-.84.254-2.62.637-2.06,1.6s.867,1.03.951.239.294-1.048.238-.4-.067,2.042.634-.16c.357-.783.793-1.272.634-1.357Zm-90.027,12.317c2.129-.508,3.361-.4,2.465.113s-.672,1.411-1.513,1.129-1.457-.9-.952-1.242Zm4.314-2.032c3.81-.226,5.378.226,2.745.282S236.422,237.606,238.1,237.324Zm6.387-.677c1.9-.226,2.577-.677-.224-.677S242.92,236.816,244.489,236.646Zm3.137-.959c.672.4.952,1.072.224.79S246.9,235.518,247.627,235.687Zm2.073-.452c2.073,0,2.689.564,1.064.508s-1.232.056-1.345.4-1.064.226-.784-.4S248.915,235.292,249.7,235.235Zm4.2,0c1.177-.282,1.513-.4.336-.451s-1.457-.113-1.457.282.5.113,1.12.169Z" transform="translate(-214.855 -194.997)" fill="#fc6" stroke="#fff" stroke-width="0.401"></path><circle id="Elipse_1" data-name="Elipse 1" cx="6" cy="6" r="6" transform="translate(36.118 79.605)" fill="#1a6585"></circle></svg>