<?xml version="1.0" encoding="utf-8"?>
<!-- Generator: Adobe Illustrator 26.5.0, SVG Export Plug-In . SVG Version: 6.00 Build 0)  -->
<svg version="1.1" id="Layer_1" xmlns="http://www.w3.org/2000/svg" xmlns:xlink="http://www.w3.org/1999/xlink" x="0px" y="0px"
	 viewBox="0 0 221.3 44" style="enable-background:new 0 0 221.3 44;" xml:space="preserve">
<style type="text/css">
	.st0{fill:none;}
	.st1{fill:#FFFFFF;}
</style>
<g>
	<rect x="-21.1" y="-21" class="st0" width="263.6" height="86.3"/>
	<path d="M61,20L61,20v2.3v2.1h-9.4c-2.3,0-4.1,0.2-5.4,0.8c-1.2,0.4-2.3,1.2-2.9,2.3c-0.8,1-1,2.1-1,3.3c0,1.9,0.6,3.3,1.9,4.5
		c1.4,1.2,3.5,1.9,6.2,1.9H61v4.1H50.6c-3.3,0-6-0.4-7.7-1c-1.9-0.6-3.3-1.9-4.3-3.7c-1-1.7-1.7-3.5-1.7-5.8c0-2.7,1-5,2.7-6.8
		c0.6-0.6,1.4-1.2,2.5-1.7c-1-0.6-1.9-1.2-2.5-1.9c-1.7-1.9-2.7-4.1-2.7-6.8c0-2.1,0.6-4.1,1.7-5.8c1-1.9,2.5-2.9,4.3-3.7
		c1.7-0.6,4.3-1,7.7-1H61v4.3H50.3c-2.7,0-4.8,0.6-6.2,1.7c-1.2,1.2-1.9,2.7-1.9,4.5c0,1.2,0.2,2.3,1,3.3c0.6,1,1.7,1.9,2.9,2.5
		c1.2,0.4,3.1,0.6,5.4,0.6H61z"/>
	<path d="M218.4,20L218.4,20v2.3v2.1H209c-2.3,0-4.1,0.2-5.4,0.8c-1.2,0.4-2.3,1.2-2.9,2.3c-0.8,1-1,2.1-1,3.3
		c0,1.9,0.6,3.3,1.9,4.5c1.4,1.2,3.5,1.9,6.2,1.9h10.6v4.1H208c-3.3,0-6-0.4-7.7-1c-1.9-0.6-3.3-1.9-4.3-3.7c-1-1.7-1.7-3.5-1.7-5.8
		c0-2.7,1-5,2.7-6.8c0.6-0.6,1.4-1.2,2.5-1.7c-1-0.6-1.9-1.2-2.5-1.9c-1.7-1.9-2.7-4.1-2.7-6.8c0-2.1,0.6-4.1,1.7-5.8
		c1-1.9,2.5-2.9,4.3-3.7c1.7-0.6,4.3-1,7.7-1h10.4v4.3h-10.6c-2.7,0-4.8,0.6-6.2,1.7c-1.2,1.2-1.9,2.7-1.9,4.5c0,1.2,0.2,2.3,1,3.3
		c0.6,1,1.7,1.9,2.9,2.5c1.2,0.4,3.1,0.6,5.4,0.6H218.4z"/>
	<path d="M3,3h18c7.2,0,11.6,3.9,11.6,10c0,4.6-2,8.4-6.6,9.7v0.1c4.4,0.9,5.4,4.1,5.7,7.9c0.3,3.7,0.1,7.9,2.2,10.5h-5.7
		c-1.4-1.6-0.6-5.7-1.4-9.4c-0.5-3.7-1.4-6.9-6.4-6.9H8v16.3H3V3z M18.6,20.6c4.8,0,8.8-1.2,8.8-6.8c0-3.7-2-6.5-6.8-6.5H8v13.3
		H18.6z"/>
	<path d="M83.9,41.2h-5.8L64.6,3h5.5l10.9,33.1h0.1L92.2,3h5.3L83.9,41.2z"/>
	<path d="M116,2.4c12,0,18,9.5,18,19.7c0,10.2-6.1,19.7-18,19.7c-12,0-18-9.5-18-19.7C98,11.9,104,2.4,116,2.4z M116,37.6
		c9.2,0,13-7.9,13-15.5c0-7.6-3.9-15.5-13-15.5c-9.2,0-13,7.9-13,15.5C103,29.7,106.8,37.6,116,37.6z"/>
	<path d="M138.9,3h5.1V37h20.2v4.3h-25.3V3z"/>
	<path d="M178.9,41.2h-5.8L159.6,3h5.5l10.9,33.1h0.1l11-33.1h5.3L178.9,41.2z"/>
</g>
</svg>
